<?xml version="1.0" encoding="utf-8"?>
<!-- Generator: Adobe Illustrator 20.0.0, SVG Export Plug-In . SVG Version: 6.00 Build 0)  -->
<svg version="1.1" id="Layer_1" xmlns="http://www.w3.org/2000/svg" xmlns:xlink="http://www.w3.org/1999/xlink" x="0px" y="0px"
	 viewBox="0 0 297 99" style="enable-background:new 0 0 297 99;" xml:space="preserve">
<style type="text/css">
	.st0{fill:#FF8300;}
	.st1{fill-rule:evenodd;clip-rule:evenodd;fill:#231F20;}
</style>
<path class="st0" d="M157,57c-0.5-0.2-1.2-0.4-2.2-0.4c-1.3,0-3.6,1.2-5,2.7v16.9h-3.5V53.5h2.9l0.5,2.6c3.1-2.8,4.8-3.2,6.5-3.2
	c1,0,1.9,0.4,2.3,0.7L157,57z"/>
<path class="st0" d="M157,57c-0.5-0.2-1.2-0.4-2.2-0.4c-1.3,0-3.6,1.2-5,2.7v16.9h-3.5V53.5h2.9l0.5,2.6c3.1-2.8,4.8-3.2,6.5-3.2
	c1,0,1.9,0.4,2.3,0.7L157,57z"/>
<path class="st0" d="M175.5,73.9c-1.8,1.8-4.3,2.8-7.2,2.8c-2.8,0-5.3-1-7.1-2.8c-2.1-2.1-3.2-5.3-3.2-9.1c0-3.7,1.2-6.9,3.2-9
	c1.8-1.9,4.3-2.9,7.1-2.9c2.9,0,5.4,1.1,7.2,2.9c2,2.1,3.2,5.2,3.2,9C178.7,68.6,177.5,71.7,175.5,73.9 M168.3,55.9
	c-4.3,0-6.7,3.5-6.7,8.8c0,5.4,2.5,8.9,6.8,8.9c4.2,0,6.8-3.6,6.8-8.9C175.1,59.4,172.7,55.9,168.3,55.9"/>
<path class="st0" d="M175.5,73.9c-1.8,1.8-4.3,2.8-7.2,2.8c-2.8,0-5.3-1-7.1-2.8c-2.1-2.1-3.2-5.3-3.2-9.1c0-3.7,1.2-6.9,3.2-9
	c1.8-1.9,4.3-2.9,7.1-2.9c2.9,0,5.4,1.1,7.2,2.9c2,2.1,3.2,5.2,3.2,9C178.7,68.6,177.5,71.7,175.5,73.9z M168.3,55.9
	c-4.3,0-6.7,3.5-6.7,8.8c0,5.4,2.5,8.9,6.8,8.9c4.2,0,6.8-3.6,6.8-8.9C175.1,59.4,172.7,55.9,168.3,55.9z"/>
<path class="st0" d="M188.1,76.7c-3.2,0-5.3-0.8-6.3-1.4v-33h3.5V54c1.6-0.6,3.2-1.1,5.1-1.1c5.2,0,10,3.6,10,11.1
	C200.4,72,194.8,76.7,188.1,76.7 M190,56.2c-2.4,0-3.6,0.7-4.7,1.2V73c1,0.4,2.1,0.6,3.6,0.6c4.5,0,8-4.2,8-9.5
	C196.9,59.5,194.5,56.2,190,56.2"/>
<path class="st0" d="M188.1,76.7c-3.2,0-5.3-0.8-6.3-1.4v-33h3.5V54c1.6-0.6,3.2-1.1,5.1-1.1c5.2,0,10,3.6,10,11.1
	C200.4,72,194.8,76.7,188.1,76.7z M190,56.2c-2.4,0-3.6,0.7-4.7,1.2V73c1,0.4,2.1,0.6,3.6,0.6c4.5,0,8-4.2,8-9.5
	C196.9,59.5,194.5,56.2,190,56.2z"/>
<path class="st0" d="M220.3,73.9c-1.8,1.8-4.3,2.8-7.2,2.8c-2.8,0-5.3-1-7.1-2.8c-2.1-2.1-3.2-5.3-3.2-9.1c0-3.7,1.2-6.9,3.2-9
	c1.8-1.9,4.3-2.9,7.1-2.9c2.9,0,5.4,1.1,7.2,2.9c2,2.1,3.2,5.2,3.2,9C223.5,68.6,222.3,71.7,220.3,73.9 M213.1,55.9
	c-4.3,0-6.7,3.5-6.7,8.8c0,5.4,2.5,8.9,6.8,8.9s6.8-3.6,6.8-8.9C219.9,59.4,217.5,55.9,213.1,55.9"/>
<path class="st0" d="M220.3,73.9c-1.8,1.8-4.3,2.8-7.2,2.8c-2.8,0-5.3-1-7.1-2.8c-2.1-2.1-3.2-5.3-3.2-9.1c0-3.7,1.2-6.9,3.2-9
	c1.8-1.9,4.3-2.9,7.1-2.9c2.9,0,5.4,1.1,7.2,2.9c2,2.1,3.2,5.2,3.2,9C223.5,68.6,222.3,71.7,220.3,73.9z M213.1,55.9
	c-4.3,0-6.7,3.5-6.7,8.8c0,5.4,2.5,8.9,6.8,8.9s6.8-3.6,6.8-8.9C219.9,59.4,217.5,55.9,213.1,55.9z"/>
<path class="st0" d="M233.2,76.7c-3.3,0-4.8-1.9-4.8-4.8V56.5h-3.7v-3h3.7v-5l3.5-1.2v6.2h7l-1.2,3h-5.7v14.3c0,1.9,0.7,2.8,2.2,2.8
	c1.6,0,3.1-0.9,4-1.6l1.1,2.5C237.5,75.7,235.3,76.7,233.2,76.7"/>
<path class="st0" d="M233.2,76.7c-3.3,0-4.8-1.9-4.8-4.8V56.5h-3.7v-3h3.7v-5l3.5-1.2v6.2h7l-1.2,3h-5.7v14.3c0,1.9,0.7,2.8,2.2,2.8
	c1.6,0,3.1-0.9,4-1.6l1.1,2.5C237.5,75.7,235.3,76.7,233.2,76.7z"/>
<path class="st0" d="M260.8,76.7c-7,0-10.6-5.4-10.6-11.6c0-6.3,3.6-12.2,11.2-12.2c2.1,0,4.2,0.6,5.8,1.4v3.3
	c-1.4-0.9-3.4-1.7-5.9-1.7c-4.8,0-7.5,3.8-7.5,8.9c0,5,2.8,8.7,7.4,8.7c2.5,0,4.3-0.8,5.7-1.7l1.1,2.5
	C266.3,75.6,263.7,76.7,260.8,76.7"/>
<path class="st0" d="M260.8,76.7c-7,0-10.6-5.4-10.6-11.6c0-6.3,3.6-12.2,11.2-12.2c2.1,0,4.2,0.6,5.8,1.4v3.3
	c-1.4-0.9-3.4-1.7-5.9-1.7c-4.8,0-7.5,3.8-7.5,8.9c0,5,2.8,8.7,7.4,8.7c2.5,0,4.3-0.8,5.7-1.7l1.1,2.5
	C266.3,75.6,263.7,76.7,260.8,76.7z"/>
<path class="st0" d="M275.9,76.7c-3.3,0-5.2-0.9-6.7-1.7l1.3-2.7c1.1,0.7,3,1.6,5.5,1.6c2.8,0,4.8-1.2,4.8-3.4
	c0-5.6-10.3-3.6-10.3-11.6c0-3.3,2.4-6,7.5-6c2.4,0,4.2,0.5,5.7,1.2v3.1c-1.6-0.7-3.2-1.3-5.6-1.3c-2.3,0-4.2,0.8-4.2,2.9
	c0,5.1,10.5,3.8,10.5,11.2C284.5,74.7,280.6,76.7,275.9,76.7"/>
<path class="st0" d="M275.9,76.7c-3.3,0-5.2-0.9-6.7-1.7l1.3-2.7c1.1,0.7,3,1.6,5.5,1.6c2.8,0,4.8-1.2,4.8-3.4
	c0-5.6-10.3-3.6-10.3-11.6c0-3.3,2.4-6,7.5-6c2.4,0,4.2,0.5,5.7,1.2v3.1c-1.6-0.7-3.2-1.3-5.6-1.3c-2.3,0-4.2,0.8-4.2,2.9
	c0,5.1,10.5,3.8,10.5,11.2C284.5,74.7,280.6,76.7,275.9,76.7z"/>
<path class="st1" d="M82.4,57v-3.1c0-0.5,0.4-0.8,0.8-0.8l13.8,0c0.4,0,0.8,0.3,0.8,0.8v2.6c0,0.4-0.4,1-1,1.9l-7.2,10.2
	c2.7-0.1,5.5,0.3,7.9,1.7c0.5,0.3,0.7,0.8,0.7,1.2v3.3c0,0.5-0.5,1-1,0.7c-4.3-2.2-9.9-2.5-14.6,0c-0.5,0.3-1-0.3-1-0.7v-3.1
	c0-0.5,0-1.4,0.5-2.1l8.3-11.9l-7.2,0C82.7,57.7,82.4,57.4,82.4,57"/>
<path class="st1" d="M32,76.2h-4.2c-0.4,0-0.7-0.3-0.8-0.7l0-21.6c0-0.4,0.4-0.8,0.8-0.8h3.9c0.4,0,0.7,0.3,0.8,0.7v2.8h0.1
	c1-2.7,2.9-4,5.5-4c2.6,0,4.3,1.3,5.5,4c1-2.7,3.3-4,5.8-4c1.8,0,3.7,0.7,4.9,2.4c1.3,1.8,1.1,4.4,1.1,6.8l0,13.6
	c0,0.4-0.4,0.8-0.8,0.8h-4.2c-0.4,0-0.8-0.4-0.8-0.8V64c0-0.9,0.1-3.2-0.1-4c-0.3-1.5-1.3-1.9-2.5-1.9c-1,0-2.1,0.7-2.5,1.8
	C44,61,44,62.8,44,64v11.4c0,0.4-0.4,0.8-0.8,0.8H39c-0.4,0-0.8-0.4-0.8-0.8l0-11.4c0-2.4,0.4-5.9-2.6-5.9c-3,0-2.9,3.4-2.9,5.9
	l0,11.4C32.8,75.9,32.4,76.2,32,76.2"/>
<path class="st1" d="M109.7,57.1c-3.1,0-3.3,4.2-3.3,6.9c0,2.6,0,8.3,3.3,8.3c3.3,0,3.4-4.5,3.4-7.3c0-1.8-0.1-4-0.6-5.7
	C112,57.7,111,57.1,109.7,57.1 M109.6,52.7c6.2,0,9.6,5.4,9.6,12.2c0,6.6-3.7,11.8-9.6,11.8c-6.1,0-9.5-5.4-9.5-12
	C100.2,57.9,103.6,52.7,109.6,52.7"/>
<path class="st1" d="M127.3,76.2h-4.2c-0.4,0-0.8-0.4-0.8-0.8l0-21.6c0-0.4,0.4-0.7,0.8-0.7h3.9c0.4,0,0.7,0.3,0.7,0.6V57h0.1
	c1.2-2.9,2.8-4.4,5.7-4.4c1.9,0,3.7,0.7,4.9,2.5c1.1,1.7,1.1,4.6,1.1,6.7v13.6c0,0.4-0.4,0.7-0.8,0.7h-4.2c-0.4,0-0.7-0.3-0.7-0.7
	V63.8c0-2.4,0.3-5.8-2.6-5.8c-1,0-2,0.7-2.4,1.7c-0.6,1.3-0.7,2.6-0.7,4.1v11.6C128.2,75.9,127.8,76.2,127.3,76.2"/>
<path class="st1" d="M75.6,76.2c-0.3,0.2-0.7,0.3-1,0.1c-1.4-1.2-1.6-1.7-2.4-2.8c-2.3,2.3-3.9,3.1-6.9,3.1c-3.5,0-6.3-2.2-6.3-6.6
	c0-3.4,1.8-5.7,4.5-6.9c2.3-1,5.5-1.2,7.9-1.5v-0.5c0-1,0.1-2.2-0.5-3.1c-0.5-0.8-1.5-1.1-2.4-1.1c-1.6,0-3,0.8-3.4,2.5
	c-0.1,0.4-0.3,0.8-0.7,0.8l-4.1-0.4c-0.3-0.1-0.7-0.4-0.6-0.9c0.9-4.9,5.4-6.4,9.4-6.4c2,0,4.7,0.5,6.3,2.1c2,1.9,1.8,4.5,1.8,7.2
	v6.6c0,2,0.8,2.8,1.6,3.9c0.3,0.4,0.3,0.8,0,1.1C78,74.1,76.4,75.4,75.6,76.2L75.6,76.2 M71.3,65.9c0,1.6,0,3-0.8,4.5
	c-0.7,1.2-1.7,1.9-2.9,1.9c-1.6,0-2.6-1.2-2.6-3c0-3.6,3.2-4.2,6.2-4.2V65.9z"/>
<path class="st1" d="M20.5,76.2c-0.3,0.2-0.7,0.3-1,0.1c-1.4-1.2-1.6-1.7-2.4-2.8c-2.3,2.3-3.9,3.1-6.9,3.1c-3.5,0-6.3-2.2-6.3-6.6
	c0-3.4,1.8-5.7,4.5-6.9c2.3-1,5.5-1.2,7.9-1.5v-0.5c0-1,0.1-2.2-0.5-3.1c-0.5-0.8-1.5-1.1-2.4-1.1c-1.6,0-3,0.8-3.4,2.5
	c-0.1,0.4-0.4,0.8-0.7,0.8l-4.1-0.4c-0.3-0.1-0.7-0.4-0.6-0.9C5.5,54,10,52.5,14,52.5c2,0,4.7,0.5,6.3,2.1c2,1.9,1.8,4.5,1.8,7.2
	v6.6c0,2,0.8,2.8,1.6,3.9c0.3,0.4,0.3,0.8,0,1.1C22.9,74.1,21.3,75.4,20.5,76.2L20.5,76.2 M16.2,65.9c0,1.6,0,3-0.8,4.5
	c-0.7,1.2-1.7,1.9-2.9,1.9c-1.6,0-2.6-1.2-2.6-3c0-3.6,3.2-4.2,6.3-4.2V65.9z"/>
<path class="st1" d="M87.9,84.5c-7.9,5.8-19.3,8.9-29.1,8.9c-13.8,0-26.1-5.1-35.5-13.6c-0.7-0.7-0.1-1.6,0.8-1.1
	c10.1,5.9,22.6,9.4,35.5,9.4c8.7,0,18.3-1.8,27.1-5.5C88.1,82.1,89.2,83.5,87.9,84.5"/>
<path class="st1" d="M91.1,80.7c-1-1.3-6.6-0.6-9.2-0.3c-0.8,0.1-0.9-0.6-0.2-1.1c4.5-3.2,11.9-2.2,12.7-1.2c0.9,1.1-0.2,8.5-4.4,12
	c-0.6,0.5-1.3,0.3-1-0.5C90,87.3,92.1,82,91.1,80.7"/>
<path class="st0" d="M244.2,53.7c-0.6,0-1.2-0.1-1.7-0.1v22.7h3.5V53.5C245.4,53.6,244.8,53.7,244.2,53.7z"/>
<g>
	<path class="st0" d="M289.2,18.1c-2.9-2.9-7.6-2.9-10.5,0c-0.5,0.5-0.8,1-1.2,1.5c0,0,0,0.1-0.1,0.1c-0.2,0.4-0.5,0.7-0.8,1
		c-2.4,2.4-6.4,2.4-8.9,0c-0.4-0.4-0.7-0.8-0.9-1.2v0c0,0,0-0.1-0.1-0.1c-0.1-0.1-0.2-0.3-0.3-0.4c-0.1-0.1-0.2-0.2-0.2-0.3
		c0,0-0.1-0.1-0.1-0.1c-0.1-0.1-0.2-0.3-0.4-0.4c-2.1-2.1-5.2-2.7-7.8-1.7c-0.1,0-0.1,0-0.2,0c0,0-0.1,0-0.1,0
		c-0.3,0.1-0.7,0.1-1,0.1c-2.7,0-4.9-2.2-4.9-4.9c0-0.4,0.1-0.8,0.1-1.2h0c0.1-0.5,0.2-0.9,0.2-1.4c0-3.2-2.6-5.8-5.8-5.8
		c-3.2,0-5.8,2.6-5.8,5.8c0,3.2,2.6,5.8,5.8,5.8c0.5,0,1-0.1,1.5-0.2l0,0c0.4-0.1,0.8-0.1,1.1-0.1c2.7,0,4.9,2.2,4.9,4.9
		c0,0.4,0,0.8-0.1,1.1c0,0,0,0.1,0,0.1c-0.3,0.8-0.5,1.7-0.5,2.6c0,0,0,0,0,0c0,0,0,0,0,0c0,0.3,0,0.6,0.1,0.9c0,0,0,0.1,0,0.1
		c0,0.3,0.1,0.6,0.2,0.9l0,0c0.1,0.5,0.2,1,0.2,1.5c0,3.5-2.8,6.3-6.3,6.3c-0.5,0-1-0.1-1.4-0.2c-0.6-0.2-1.2-0.2-1.9-0.2
		c-4.1,0-7.4,3.3-7.4,7.4c0,4.1,3.3,7.4,7.4,7.4c4.1,0,7.4-3.3,7.4-7.4c0-0.7-0.1-1.3-0.3-1.9c0,0,0-0.1,0-0.1
		c-0.1-0.4-0.1-0.9-0.1-1.3c0-3.5,2.8-6.3,6.3-6.3c0.5,0,1,0.1,1.5,0.2v0c0.1,0,0.2,0,0.3,0.1c0.1,0,0.1,0,0.2,0
		c0.4,0.1,0.9,0.1,1.3,0.1c2.8,0,5.2-1.5,6.4-3.8c0.2-0.4,0.5-0.7,0.8-1c2.4-2.4,6.4-2.4,8.9,0c0.3,0.3,0.6,0.7,0.9,1.1
		c0.3,0.5,0.7,1,1.2,1.5c2.9,2.9,7.6,2.9,10.5,0C292.1,25.7,292.1,21,289.2,18.1z M248.6,10.5c-0.8,1.3-2.5,1.6-3.8,0.8
		c-1.3-0.8-1.6-2.5-0.8-3.8c0.8-1.3,2.5-1.6,3.8-0.8C249,7.5,249.4,9.2,248.6,10.5z M265,26.1c-1.6,2.4-4.8,3.1-7.1,1.5
		c-2.4-1.6-3.1-4.8-1.5-7.1c1.6-2.4,4.8-3.1,7.1-1.5C265.9,20.5,266.5,23.7,265,26.1z M287.6,25.7c-1.3,2-3.9,2.5-5.9,1.3
		c-2-1.3-2.5-3.9-1.2-5.9c1.3-2,3.9-2.5,5.9-1.2C288.3,21,288.9,23.7,287.6,25.7z"/>
	<ellipse transform="matrix(0.5454 -0.8382 0.8382 0.5454 98.9673 229.0608)" class="st0" cx="260.6" cy="23.3" rx="3.2" ry="3.2"/>
</g>
</svg>
