<?xml version="1.0" encoding="utf-8"?>
<!-- Generator: Adobe Illustrator 20.0.0, SVG Export Plug-In . SVG Version: 6.00 Build 0)  -->
<svg version="1.1" id="Layer_1" xmlns="http://www.w3.org/2000/svg" xmlns:xlink="http://www.w3.org/1999/xlink" x="0px" y="0px"
	 viewBox="0 0 307 81" style="enable-background:new 0 0 307 81;" xml:space="preserve">
<style type="text/css">
	.st0{fill:#FF8300;}
	.st1{fill-rule:evenodd;clip-rule:evenodd;fill:#FF8300;}
</style>
<path class="st0" d="M162,34.5c-0.5-0.2-1.2-0.4-2.2-0.4c-1.3,0-3.6,1.2-5,2.7v16.9h-3.5V31h2.9l0.5,2.6c3.1-2.8,4.8-3.2,6.5-3.2
	c1,0,1.9,0.4,2.3,0.7L162,34.5z"/>
<path class="st0" d="M162,34.5c-0.5-0.2-1.2-0.4-2.2-0.4c-1.3,0-3.6,1.2-5,2.7v16.9h-3.5V31h2.9l0.5,2.6c3.1-2.8,4.8-3.2,6.5-3.2
	c1,0,1.9,0.4,2.3,0.7L162,34.5z"/>
<path class="st0" d="M180.5,51.4c-1.8,1.8-4.3,2.8-7.2,2.8c-2.8,0-5.3-1-7.1-2.8c-2.1-2.1-3.2-5.3-3.2-9.1c0-3.7,1.2-6.9,3.2-9
	c1.8-1.9,4.3-2.9,7.1-2.9c2.9,0,5.4,1.1,7.2,2.9c2,2.1,3.2,5.2,3.2,9C183.7,46.1,182.5,49.2,180.5,51.4 M173.3,33.4
	c-4.3,0-6.7,3.5-6.7,8.8c0,5.4,2.5,8.9,6.8,8.9c4.2,0,6.8-3.6,6.8-8.9C180.1,36.9,177.7,33.4,173.3,33.4"/>
<path class="st0" d="M180.5,51.4c-1.8,1.8-4.3,2.8-7.2,2.8c-2.8,0-5.3-1-7.1-2.8c-2.1-2.1-3.2-5.3-3.2-9.1c0-3.7,1.2-6.9,3.2-9
	c1.8-1.9,4.3-2.9,7.1-2.9c2.9,0,5.4,1.1,7.2,2.9c2,2.1,3.2,5.2,3.2,9C183.7,46.1,182.5,49.2,180.5,51.4z M173.3,33.4
	c-4.3,0-6.7,3.5-6.7,8.8c0,5.4,2.5,8.9,6.8,8.9c4.2,0,6.8-3.6,6.8-8.9C180.1,36.9,177.7,33.4,173.3,33.4z"/>
<path class="st0" d="M193.1,54.2c-3.2,0-5.3-0.8-6.3-1.4v-33h3.5v11.8c1.6-0.6,3.2-1.1,5.1-1.1c5.2,0,10,3.6,10,11.1
	C205.4,49.5,199.8,54.2,193.1,54.2 M195,33.7c-2.4,0-3.6,0.7-4.7,1.2v15.7c1,0.4,2.1,0.6,3.6,0.6c4.5,0,8-4.2,8-9.5
	C201.9,37,199.5,33.7,195,33.7"/>
<path class="st0" d="M193.1,54.2c-3.2,0-5.3-0.8-6.3-1.4v-33h3.5v11.8c1.6-0.6,3.2-1.1,5.1-1.1c5.2,0,10,3.6,10,11.1
	C205.4,49.5,199.8,54.2,193.1,54.2z M195,33.7c-2.4,0-3.6,0.7-4.7,1.2v15.7c1,0.4,2.1,0.6,3.6,0.6c4.5,0,8-4.2,8-9.5
	C201.9,37,199.5,33.7,195,33.7z"/>
<path class="st0" d="M225.3,51.4c-1.8,1.8-4.3,2.8-7.2,2.8c-2.8,0-5.3-1-7.1-2.8c-2.1-2.1-3.2-5.3-3.2-9.1c0-3.7,1.2-6.9,3.2-9
	c1.8-1.9,4.3-2.9,7.1-2.9c2.9,0,5.4,1.1,7.2,2.9c2,2.1,3.2,5.2,3.2,9C228.5,46.1,227.3,49.2,225.3,51.4 M218.1,33.4
	c-4.3,0-6.7,3.5-6.7,8.8c0,5.4,2.5,8.9,6.8,8.9s6.8-3.6,6.8-8.9C224.9,36.9,222.5,33.4,218.1,33.4"/>
<path class="st0" d="M225.3,51.4c-1.8,1.8-4.3,2.8-7.2,2.8c-2.8,0-5.3-1-7.1-2.8c-2.1-2.1-3.2-5.3-3.2-9.1c0-3.7,1.2-6.9,3.2-9
	c1.8-1.9,4.3-2.9,7.1-2.9c2.9,0,5.4,1.1,7.2,2.9c2,2.1,3.2,5.2,3.2,9C228.5,46.1,227.3,49.2,225.3,51.4z M218.1,33.4
	c-4.3,0-6.7,3.5-6.7,8.8c0,5.4,2.5,8.9,6.8,8.9s6.8-3.6,6.8-8.9C224.9,36.9,222.5,33.4,218.1,33.4z"/>
<path class="st0" d="M238.2,54.2c-3.3,0-4.8-1.9-4.8-4.8V34h-3.7v-3h3.7v-5l3.5-1.2V31h7l-1.2,3h-5.7v14.3c0,1.9,0.7,2.8,2.2,2.8
	c1.6,0,3.1-0.9,4-1.6l1.1,2.5C242.5,53.2,240.3,54.2,238.2,54.2"/>
<path class="st0" d="M238.2,54.2c-3.3,0-4.8-1.9-4.8-4.8V34h-3.7v-3h3.7v-5l3.5-1.2V31h7l-1.2,3h-5.7v14.3c0,1.9,0.7,2.8,2.2,2.8
	c1.6,0,3.1-0.9,4-1.6l1.1,2.5C242.5,53.2,240.3,54.2,238.2,54.2z"/>
<path class="st0" d="M265.8,54.2c-7,0-10.6-5.4-10.6-11.6c0-6.3,3.6-12.2,11.2-12.2c2.1,0,4.2,0.6,5.8,1.4v3.3
	c-1.4-0.9-3.4-1.7-5.9-1.7c-4.8,0-7.5,3.8-7.5,8.9c0,5,2.8,8.7,7.4,8.7c2.5,0,4.3-0.8,5.7-1.7L273,52
	C271.3,53.1,268.7,54.2,265.8,54.2"/>
<path class="st0" d="M265.8,54.2c-7,0-10.6-5.4-10.6-11.6c0-6.3,3.6-12.2,11.2-12.2c2.1,0,4.2,0.6,5.8,1.4v3.3
	c-1.4-0.9-3.4-1.7-5.9-1.7c-4.8,0-7.5,3.8-7.5,8.9c0,5,2.8,8.7,7.4,8.7c2.5,0,4.3-0.8,5.7-1.7L273,52
	C271.3,53.1,268.7,54.2,265.8,54.2z"/>
<path class="st0" d="M280.9,54.2c-3.3,0-5.2-0.9-6.7-1.7l1.3-2.7c1.1,0.7,3,1.6,5.5,1.6c2.8,0,4.8-1.2,4.8-3.4
	c0-5.6-10.3-3.6-10.3-11.6c0-3.3,2.4-6,7.5-6c2.4,0,4.2,0.5,5.7,1.2v3.1c-1.6-0.7-3.2-1.3-5.6-1.3c-2.3,0-4.2,0.8-4.2,2.9
	c0,5.1,10.5,3.8,10.5,11.2C289.5,52.2,285.6,54.2,280.9,54.2"/>
<path class="st0" d="M280.9,54.2c-3.3,0-5.2-0.9-6.7-1.7l1.3-2.7c1.1,0.7,3,1.6,5.5,1.6c2.8,0,4.8-1.2,4.8-3.4
	c0-5.6-10.3-3.6-10.3-11.6c0-3.3,2.4-6,7.5-6c2.4,0,4.2,0.5,5.7,1.2v3.1c-1.6-0.7-3.2-1.3-5.6-1.3c-2.3,0-4.2,0.8-4.2,2.9
	c0,5.1,10.5,3.8,10.5,11.2C289.5,52.2,285.6,54.2,280.9,54.2z"/>
<path class="st0" d="M297,13.5c-2.3-2.3-6-2.3-8.3,0c-0.4,0.4-0.7,0.8-0.9,1.2l0,0c-0.2,0.3-0.4,0.6-0.7,0.9c-1.9,1.9-5.1,1.9-7,0
	c-0.3-0.3-0.5-0.6-0.7-0.9c0-0.1-0.1-0.1-0.1-0.2c-0.4-0.8-0.8-1.5-1.5-2.1c-2.9-2.9-7.6-2.9-10.5,0c-0.5,0.5-0.8,1-1.1,1.5v0
	c-0.3,0.4-0.6,0.8-0.9,1.1c-2.4,2.4-6.4,2.4-8.9,0c-0.3-0.3-0.6-0.7-0.9-1.1c-0.3-0.5-0.7-1-1.2-1.5c-2.9-2.9-7.6-2.9-10.5,0
	c-2.9,2.9-2.9,7.6,0,10.5c2.9,2.9,7.6,2.9,10.5,0c0.5-0.5,0.8-1,1.2-1.5c0,0,0-0.1,0.1-0.1c0.2-0.4,0.5-0.7,0.8-1
	c2.4-2.4,6.4-2.4,8.9,0c0.4,0.4,0.7,0.8,0.9,1.2v0c0.3,0.5,0.7,1,1.1,1.4c2.9,2.9,7.6,2.9,10.5,0c0.5-0.5,0.9-1,1.2-1.6
	c0.2-0.2,0.3-0.4,0.4-0.6c0,0,0-0.1,0.1-0.1c0.2-0.3,0.4-0.6,0.6-0.8c1.9-1.9,5.1-1.9,7,0c0.3,0.3,0.5,0.6,0.7,1l0,0
	c0.2,0.4,0.5,0.8,0.9,1.1c2.3,2.3,6,2.3,8.3,0C299.3,19.5,299.3,15.8,297,13.5z M273.7,22.7c-2.8,0.6-5.5-1.2-6.1-4
	c-0.6-2.8,1.2-5.5,4-6.1c2.8-0.6,5.5,1.2,6.1,4C278.3,19.3,276.5,22.1,273.7,22.7z M293.5,20.3c-1.5,0.3-2.9-0.6-3.2-2.1
	c-0.3-1.5,0.6-2.9,2.1-3.2c1.5-0.3,2.9,0.6,3.2,2.1C295.9,18.6,294.9,20,293.5,20.3z M275.9,16.9c0.4,1.8-0.8,3.5-2.5,3.9
	c-1.8,0.4-3.5-0.8-3.8-2.5c-0.4-1.8,0.7-3.5,2.5-3.8C273.8,14.1,275.5,15.2,275.9,16.9z"/>
<path class="st0" d="M249.2,31.2c-0.6,0-1.2-0.1-1.7-0.1v22.7h3.5V31C250.4,31.1,249.8,31.2,249.2,31.2z"/>
<path class="st1" d="M87.4,34.5v-3.1c0-0.5,0.4-0.8,0.8-0.8l13.8,0c0.4,0,0.8,0.3,0.8,0.8V34c0,0.4-0.4,1-1,1.9l-7.2,10.2
	c2.7-0.1,5.5,0.3,7.9,1.7c0.5,0.3,0.7,0.8,0.7,1.2v3.3c0,0.5-0.5,1-1,0.7c-4.3-2.2-9.9-2.5-14.6,0c-0.5,0.3-1-0.3-1-0.7v-3.1
	c0-0.5,0-1.4,0.5-2.1l8.3-11.9l-7.2,0C87.7,35.2,87.4,34.9,87.4,34.5"/>
<path class="st1" d="M37,53.7h-4.2c-0.4,0-0.7-0.3-0.8-0.7l0-21.6c0-0.4,0.4-0.8,0.8-0.8h3.9c0.4,0,0.7,0.3,0.8,0.7v2.8h0.1
	c1-2.7,2.9-4,5.5-4c2.6,0,4.3,1.3,5.5,4c1-2.7,3.3-4,5.8-4c1.8,0,3.7,0.7,4.9,2.4c1.3,1.8,1.1,4.4,1.1,6.8l0,13.6
	c0,0.4-0.4,0.8-0.8,0.8h-4.2c-0.4,0-0.8-0.4-0.8-0.8V41.5c0-0.9,0.1-3.2-0.1-4c-0.3-1.5-1.3-1.9-2.5-1.9c-1,0-2.1,0.7-2.5,1.8
	C49,38.5,49,40.3,49,41.5v11.4c0,0.4-0.4,0.8-0.8,0.8H44c-0.4,0-0.8-0.4-0.8-0.8l0-11.4c0-2.4,0.4-5.9-2.6-5.9c-3,0-2.9,3.4-2.9,5.9
	l0,11.4C37.8,53.4,37.4,53.7,37,53.7"/>
<path class="st1" d="M114.6,30.2c-6.1,0-9.5,5.2-9.5,11.9c0,6.7,3.3,12,9.5,12c5.9,0,9.6-5.2,9.6-11.8
	C124.3,35.6,120.9,30.2,114.6,30.2z M114.6,49.7c-3.3,0-3.3-5.6-3.3-8.3c0-2.6,0.2-6.9,3.3-6.9c1.3,0,2.3,0.6,2.7,2.1
	c0.5,1.7,0.6,3.9,0.6,5.7C118.1,45.2,117.9,49.7,114.6,49.7z"/>
<path class="st1" d="M132.3,53.7h-4.2c-0.4,0-0.8-0.4-0.8-0.8l0-21.6c0-0.4,0.4-0.7,0.8-0.7h3.9c0.4,0,0.7,0.3,0.7,0.6v3.3h0.1
	c1.2-2.9,2.8-4.4,5.7-4.4c1.9,0,3.7,0.7,4.9,2.5c1.1,1.7,1.1,4.6,1.1,6.7V53c0,0.4-0.4,0.7-0.8,0.7h-4.2c-0.4,0-0.7-0.3-0.7-0.7
	V41.3c0-2.4,0.3-5.8-2.6-5.8c-1,0-2,0.7-2.4,1.7c-0.6,1.3-0.7,2.6-0.7,4.1v11.6C133.2,53.4,132.8,53.7,132.3,53.7"/>
<path class="st1" d="M83.8,49.8c-0.8-1.1-1.6-1.9-1.6-3.9v-6.6c0-2.8,0.2-5.3-1.8-7.2c-1.6-1.5-4.3-2.1-6.3-2.1
	c-4,0-8.5,1.5-9.4,6.4c-0.1,0.5,0.3,0.8,0.6,0.9l4.1,0.4c0.4,0,0.7-0.4,0.7-0.8c0.4-1.7,1.8-2.5,3.4-2.5c0.9,0,1.8,0.3,2.4,1.1
	c0.6,0.9,0.5,2,0.5,3.1v0.5c-2.4,0.3-5.6,0.5-7.9,1.5C65.8,41.7,64,44,64,47.5c0,4.4,2.8,6.6,6.3,6.6c3,0,4.6-0.7,6.9-3.1
	c0.8,1.1,1,1.6,2.4,2.8c0.3,0.2,0.7,0.2,1-0.1l0,0c0.8-0.7,2.4-2.1,3.2-2.8C84.2,50.6,84.1,50.1,83.8,49.8z M75.6,47.9
	c-0.7,1.2-1.7,1.9-2.9,1.9c-1.6,0-2.6-1.2-2.6-3c0-3.6,3.2-4.2,6.2-4.2v0.9C76.3,45,76.4,46.4,75.6,47.9z"/>
<path class="st1" d="M28.7,49.8c-0.8-1.1-1.6-1.9-1.6-3.9v-6.6c0-2.8,0.2-5.3-1.8-7.2C23.7,30.5,21,30,19,30c-4,0-8.5,1.5-9.4,6.4
	c-0.1,0.5,0.3,0.8,0.6,0.9l4.1,0.4c0.4,0,0.7-0.4,0.7-0.8c0.3-1.7,1.8-2.5,3.4-2.5c0.9,0,1.8,0.3,2.4,1.1c0.6,0.9,0.5,2,0.5,3.1v0.5
	c-2.4,0.3-5.6,0.5-7.9,1.5c-2.6,1.1-4.5,3.5-4.5,6.9c0,4.4,2.8,6.6,6.3,6.6c3,0,4.6-0.7,6.9-3.1c0.8,1.1,1,1.6,2.4,2.8
	c0.3,0.2,0.7,0.2,1-0.1l0,0c0.8-0.7,2.4-2.1,3.2-2.8C29.1,50.6,29,50.1,28.7,49.8z M20.5,47.9c-0.7,1.2-1.7,1.9-2.9,1.9
	c-1.6,0-2.6-1.2-2.6-3c0-3.6,3.2-4.2,6.3-4.2v0.9C21.2,45,21.3,46.4,20.5,47.9z"/>
<path class="st1" d="M92.9,62c-7.9,5.8-19.3,8.9-29.1,8.9c-13.8,0-26.1-5.1-35.5-13.6c-0.7-0.7-0.1-1.6,0.8-1.1
	c10.1,5.9,22.6,9.4,35.5,9.4c8.7,0,18.3-1.8,27.1-5.5C93.1,59.6,94.2,61,92.9,62"/>
<path class="st1" d="M96.1,58.2c-1-1.3-6.6-0.6-9.2-0.3c-0.8,0.1-0.9-0.6-0.2-1.1c4.5-3.2,11.9-2.2,12.7-1.2c0.9,1.1-0.2,8.5-4.4,12
	c-0.6,0.5-1.3,0.3-1-0.5C95,64.8,97.1,59.5,96.1,58.2"/>
</svg>
