<?xml version="1.0" encoding="utf-8"?>
<!-- Generator: Adobe Illustrator 20.0.0, SVG Export Plug-In . SVG Version: 6.00 Build 0)  -->
<svg version="1.1" id="Layer_1" xmlns="http://www.w3.org/2000/svg" xmlns:xlink="http://www.w3.org/1999/xlink" x="0px" y="0px"
	 viewBox="0 0 303 82" style="enable-background:new 0 0 303 82;" xml:space="preserve">
<style type="text/css">
	.st0{fill-rule:evenodd;clip-rule:evenodd;}
</style>
<path d="M160,35c-0.5-0.2-1.2-0.4-2.2-0.4c-1.3,0-3.6,1.2-5,2.7v16.9h-3.5V31.5h2.9l0.5,2.6c3.1-2.8,4.8-3.2,6.5-3.2
	c1,0,1.9,0.4,2.3,0.7L160,35z"/>
<path d="M160,35c-0.5-0.2-1.2-0.4-2.2-0.4c-1.3,0-3.6,1.2-5,2.7v16.9h-3.5V31.5h2.9l0.5,2.6c3.1-2.8,4.8-3.2,6.5-3.2
	c1,0,1.9,0.4,2.3,0.7L160,35z"/>
<path d="M178.5,51.9c-1.8,1.8-4.3,2.8-7.2,2.8c-2.8,0-5.3-1-7.1-2.8c-2.1-2.1-3.2-5.3-3.2-9.1c0-3.7,1.2-6.9,3.2-9
	c1.8-1.9,4.3-2.9,7.1-2.9c2.9,0,5.4,1.1,7.2,2.9c2,2.1,3.2,5.2,3.2,9C181.7,46.6,180.5,49.7,178.5,51.9 M171.3,33.9
	c-4.3,0-6.7,3.5-6.7,8.8c0,5.4,2.5,8.9,6.8,8.9c4.2,0,6.8-3.6,6.8-8.9C178.1,37.4,175.7,33.9,171.3,33.9"/>
<path d="M178.5,51.9c-1.8,1.8-4.3,2.8-7.2,2.8c-2.8,0-5.3-1-7.1-2.8c-2.1-2.1-3.2-5.3-3.2-9.1c0-3.7,1.2-6.9,3.2-9
	c1.8-1.9,4.3-2.9,7.1-2.9c2.9,0,5.4,1.1,7.2,2.9c2,2.1,3.2,5.2,3.2,9C181.7,46.6,180.5,49.7,178.5,51.9z M171.3,33.9
	c-4.3,0-6.7,3.5-6.7,8.8c0,5.4,2.5,8.9,6.8,8.9c4.2,0,6.8-3.6,6.8-8.9C178.1,37.4,175.7,33.9,171.3,33.9z"/>
<path d="M191.1,54.7c-3.2,0-5.3-0.8-6.3-1.4v-33h3.5V32c1.6-0.6,3.2-1.1,5.1-1.1c5.2,0,10,3.6,10,11.1
	C203.4,50,197.8,54.7,191.1,54.7 M193,34.2c-2.4,0-3.6,0.7-4.7,1.2V51c1,0.4,2.1,0.6,3.6,0.6c4.5,0,8-4.2,8-9.5
	C199.9,37.5,197.5,34.2,193,34.2"/>
<path d="M191.1,54.7c-3.2,0-5.3-0.8-6.3-1.4v-33h3.5V32c1.6-0.6,3.2-1.1,5.1-1.1c5.2,0,10,3.6,10,11.1
	C203.4,50,197.8,54.7,191.1,54.7z M193,34.2c-2.4,0-3.6,0.7-4.7,1.2V51c1,0.4,2.1,0.6,3.6,0.6c4.5,0,8-4.2,8-9.5
	C199.9,37.5,197.5,34.2,193,34.2z"/>
<path d="M223.3,51.9c-1.8,1.8-4.3,2.8-7.2,2.8c-2.8,0-5.3-1-7.1-2.8c-2.1-2.1-3.2-5.3-3.2-9.1c0-3.7,1.2-6.9,3.2-9
	c1.8-1.9,4.3-2.9,7.1-2.9c2.9,0,5.4,1.1,7.2,2.9c2,2.1,3.2,5.2,3.2,9C226.5,46.6,225.3,49.7,223.3,51.9 M216.1,33.9
	c-4.3,0-6.7,3.5-6.7,8.8c0,5.4,2.5,8.9,6.8,8.9s6.8-3.6,6.8-8.9C222.9,37.4,220.5,33.9,216.1,33.9"/>
<path d="M223.3,51.9c-1.8,1.8-4.3,2.8-7.2,2.8c-2.8,0-5.3-1-7.1-2.8c-2.1-2.1-3.2-5.3-3.2-9.1c0-3.7,1.2-6.9,3.2-9
	c1.8-1.9,4.3-2.9,7.1-2.9c2.9,0,5.4,1.1,7.2,2.9c2,2.1,3.2,5.2,3.2,9C226.5,46.6,225.3,49.7,223.3,51.9z M216.1,33.9
	c-4.3,0-6.7,3.5-6.7,8.8c0,5.4,2.5,8.9,6.8,8.9s6.8-3.6,6.8-8.9C222.9,37.4,220.5,33.9,216.1,33.9z"/>
<path d="M236.2,54.7c-3.3,0-4.8-1.9-4.8-4.8V34.5h-3.7v-3h3.7v-5l3.5-1.2v6.2h7l-1.2,3h-5.7v14.3c0,1.9,0.7,2.8,2.2,2.8
	c1.6,0,3.1-0.9,4-1.6l1.1,2.5C240.5,53.7,238.3,54.7,236.2,54.7"/>
<path d="M236.2,54.7c-3.3,0-4.8-1.9-4.8-4.8V34.5h-3.7v-3h3.7v-5l3.5-1.2v6.2h7l-1.2,3h-5.7v14.3c0,1.9,0.7,2.8,2.2,2.8
	c1.6,0,3.1-0.9,4-1.6l1.1,2.5C240.5,53.7,238.3,54.7,236.2,54.7z"/>
<path d="M263.8,54.7c-7,0-10.6-5.4-10.6-11.6c0-6.3,3.6-12.2,11.2-12.2c2.1,0,4.2,0.6,5.8,1.4v3.3c-1.4-0.9-3.4-1.7-5.9-1.7
	c-4.8,0-7.5,3.8-7.5,8.9c0,5,2.8,8.7,7.4,8.7c2.5,0,4.3-0.8,5.7-1.7l1.1,2.5C269.3,53.6,266.7,54.7,263.8,54.7"/>
<path d="M263.8,54.7c-7,0-10.6-5.4-10.6-11.6c0-6.3,3.6-12.2,11.2-12.2c2.1,0,4.2,0.6,5.8,1.4v3.3c-1.4-0.9-3.4-1.7-5.9-1.7
	c-4.8,0-7.5,3.8-7.5,8.9c0,5,2.8,8.7,7.4,8.7c2.5,0,4.3-0.8,5.7-1.7l1.1,2.5C269.3,53.6,266.7,54.7,263.8,54.7z"/>
<path d="M278.9,54.7c-3.3,0-5.2-0.9-6.7-1.7l1.3-2.7c1.1,0.7,3,1.6,5.5,1.6c2.8,0,4.8-1.2,4.8-3.4c0-5.6-10.3-3.6-10.3-11.6
	c0-3.3,2.4-6,7.5-6c2.4,0,4.2,0.5,5.7,1.2v3.1c-1.6-0.7-3.2-1.3-5.6-1.3c-2.3,0-4.2,0.8-4.2,2.9c0,5.1,10.5,3.8,10.5,11.2
	C287.5,52.7,283.6,54.7,278.9,54.7"/>
<path d="M278.9,54.7c-3.3,0-5.2-0.9-6.7-1.7l1.3-2.7c1.1,0.7,3,1.6,5.5,1.6c2.8,0,4.8-1.2,4.8-3.4c0-5.6-10.3-3.6-10.3-11.6
	c0-3.3,2.4-6,7.5-6c2.4,0,4.2,0.5,5.7,1.2v3.1c-1.6-0.7-3.2-1.3-5.6-1.3c-2.3,0-4.2,0.8-4.2,2.9c0,5.1,10.5,3.8,10.5,11.2
	C287.5,52.7,283.6,54.7,278.9,54.7z"/>
<path d="M295,14c-2.3-2.3-6-2.3-8.3,0c-0.4,0.4-0.7,0.8-0.9,1.2l0,0c-0.2,0.3-0.4,0.6-0.7,0.9c-1.9,1.9-5.1,1.9-7,0
	c-0.3-0.3-0.5-0.6-0.7-0.9c0-0.1-0.1-0.1-0.1-0.2c-0.4-0.8-0.8-1.5-1.5-2.1c-2.9-2.9-7.6-2.9-10.5,0c-0.5,0.5-0.8,1-1.1,1.5v0
	c-0.3,0.4-0.6,0.8-0.9,1.1c-2.4,2.4-6.4,2.4-8.9,0c-0.3-0.3-0.6-0.7-0.9-1.1c-0.3-0.5-0.7-1-1.2-1.5c-2.9-2.9-7.6-2.9-10.5,0
	c-2.9,2.9-2.9,7.6,0,10.5c2.9,2.9,7.6,2.9,10.5,0c0.5-0.5,0.8-1,1.2-1.5c0,0,0-0.1,0.1-0.1c0.2-0.4,0.5-0.7,0.8-1
	c2.4-2.4,6.4-2.4,8.9,0c0.4,0.4,0.7,0.8,0.9,1.2v0c0.3,0.5,0.7,1,1.1,1.4c2.9,2.9,7.6,2.9,10.5,0c0.5-0.5,0.9-1,1.2-1.6
	c0.2-0.2,0.3-0.4,0.4-0.6c0,0,0-0.1,0.1-0.1c0.2-0.3,0.4-0.6,0.6-0.8c1.9-1.9,5.1-1.9,7,0c0.3,0.3,0.5,0.6,0.7,1l0,0
	c0.2,0.4,0.5,0.8,0.9,1.1c2.3,2.3,6,2.3,8.3,0C297.3,20,297.3,16.3,295,14z M271.7,23.2c-2.8,0.6-5.5-1.2-6.1-4
	c-0.6-2.8,1.2-5.5,4-6.1c2.8-0.6,5.5,1.2,6.1,4C276.3,19.8,274.5,22.6,271.7,23.2z M291.5,20.8c-1.5,0.3-2.9-0.6-3.2-2.1
	c-0.3-1.5,0.6-2.9,2.1-3.2c1.5-0.3,2.9,0.6,3.2,2.1C293.9,19.1,292.9,20.5,291.5,20.8z M273.9,17.4c0.4,1.8-0.8,3.5-2.5,3.9
	c-1.8,0.4-3.5-0.8-3.8-2.5c-0.4-1.8,0.7-3.5,2.5-3.8C271.8,14.6,273.5,15.7,273.9,17.4z"/>
<path d="M247.2,31.7c-0.6,0-1.2-0.1-1.7-0.1v22.7h3.5V31.5C248.4,31.6,247.8,31.7,247.2,31.7z"/>
<path class="st0" d="M85.4,35v-3.1c0-0.5,0.4-0.8,0.8-0.8l13.8,0c0.4,0,0.8,0.3,0.8,0.8v2.6c0,0.4-0.4,1-1,1.9l-7.2,10.2
	c2.7-0.1,5.5,0.3,7.9,1.7c0.5,0.3,0.7,0.8,0.7,1.2v3.3c0,0.5-0.5,1-1,0.7c-4.3-2.2-9.9-2.5-14.6,0c-0.5,0.3-1-0.3-1-0.7v-3.1
	c0-0.5,0-1.4,0.5-2.1l8.3-11.9l-7.2,0C85.7,35.7,85.4,35.4,85.4,35"/>
<path class="st0" d="M35,54.2h-4.2c-0.4,0-0.7-0.3-0.8-0.7l0-21.6c0-0.4,0.4-0.8,0.8-0.8h3.9c0.4,0,0.7,0.3,0.8,0.7v2.8h0.1
	c1-2.7,2.9-4,5.5-4c2.6,0,4.3,1.3,5.5,4c1-2.7,3.3-4,5.8-4c1.8,0,3.7,0.7,4.9,2.4c1.3,1.8,1.1,4.4,1.1,6.8l0,13.6
	c0,0.4-0.4,0.8-0.8,0.8h-4.2c-0.4,0-0.8-0.4-0.8-0.8V42c0-0.9,0.1-3.2-0.1-4c-0.3-1.5-1.3-1.9-2.5-1.9c-1,0-2.1,0.7-2.5,1.8
	C47,39,47,40.8,47,42v11.4c0,0.4-0.4,0.8-0.8,0.8H42c-0.4,0-0.8-0.4-0.8-0.8l0-11.4c0-2.4,0.4-5.9-2.6-5.9c-3,0-2.9,3.4-2.9,5.9
	l0,11.4C35.8,53.9,35.4,54.2,35,54.2"/>
<path class="st0" d="M112.6,30.7c-6.1,0-9.5,5.2-9.5,11.9c0,6.7,3.3,12,9.5,12c5.9,0,9.6-5.2,9.6-11.8
	C122.3,36.1,118.9,30.7,112.6,30.7z M112.6,50.2c-3.3,0-3.3-5.6-3.3-8.3c0-2.6,0.2-6.9,3.3-6.9c1.3,0,2.3,0.6,2.7,2.1
	c0.5,1.7,0.6,3.9,0.6,5.7C116.1,45.7,115.9,50.2,112.6,50.2z"/>
<path class="st0" d="M130.3,54.2h-4.2c-0.4,0-0.8-0.4-0.8-0.8l0-21.6c0-0.4,0.4-0.7,0.8-0.7h3.9c0.4,0,0.7,0.3,0.7,0.6V35h0.1
	c1.2-2.9,2.8-4.4,5.7-4.4c1.9,0,3.7,0.7,4.9,2.5c1.1,1.7,1.1,4.6,1.1,6.7v13.6c0,0.4-0.4,0.7-0.8,0.7h-4.2c-0.4,0-0.7-0.3-0.7-0.7
	V41.8c0-2.4,0.3-5.8-2.6-5.8c-1,0-2,0.7-2.4,1.7c-0.6,1.3-0.7,2.6-0.7,4.1v11.6C131.2,53.9,130.8,54.2,130.3,54.2"/>
<path class="st0" d="M81.8,50.3c-0.8-1.1-1.6-1.9-1.6-3.9v-6.6c0-2.8,0.2-5.3-1.8-7.2c-1.6-1.5-4.3-2.1-6.3-2.1
	c-4,0-8.5,1.5-9.4,6.4c-0.1,0.5,0.3,0.8,0.6,0.9l4.1,0.4c0.4,0,0.7-0.4,0.7-0.8c0.4-1.7,1.8-2.5,3.4-2.5c0.9,0,1.8,0.3,2.4,1.1
	c0.6,0.9,0.5,2,0.5,3.1v0.5c-2.4,0.3-5.6,0.5-7.9,1.5C63.8,42.2,62,44.5,62,48c0,4.4,2.8,6.6,6.3,6.6c3,0,4.6-0.7,6.9-3.1
	c0.8,1.1,1,1.6,2.4,2.8c0.3,0.2,0.7,0.2,1-0.1l0,0c0.8-0.7,2.4-2.1,3.2-2.8C82.2,51.1,82.1,50.6,81.8,50.3z M73.6,48.4
	c-0.7,1.2-1.7,1.9-2.9,1.9c-1.6,0-2.6-1.2-2.6-3c0-3.6,3.2-4.2,6.2-4.2v0.9C74.3,45.5,74.4,46.9,73.6,48.4z"/>
<path class="st0" d="M26.7,50.3c-0.8-1.1-1.6-1.9-1.6-3.9v-6.6c0-2.8,0.2-5.3-1.8-7.2C21.7,31,19,30.5,17,30.5c-4,0-8.5,1.5-9.4,6.4
	c-0.1,0.5,0.3,0.8,0.6,0.9l4.1,0.4c0.4,0,0.7-0.4,0.7-0.8c0.3-1.7,1.8-2.5,3.4-2.5c0.9,0,1.8,0.3,2.4,1.1c0.6,0.9,0.5,2,0.5,3.1v0.5
	c-2.4,0.3-5.6,0.5-7.9,1.5c-2.6,1.1-4.5,3.5-4.5,6.9c0,4.4,2.8,6.6,6.3,6.6c3,0,4.6-0.7,6.9-3.1c0.8,1.1,1,1.6,2.4,2.8
	c0.3,0.2,0.7,0.2,1-0.1l0,0c0.8-0.7,2.4-2.1,3.2-2.8C27.1,51.1,27,50.6,26.7,50.3z M18.5,48.4c-0.7,1.2-1.7,1.9-2.9,1.9
	c-1.6,0-2.6-1.2-2.6-3c0-3.6,3.2-4.2,6.3-4.2v0.9C19.2,45.5,19.3,46.9,18.5,48.4z"/>
<path class="st0" d="M90.9,62.5c-7.9,5.8-19.3,8.9-29.1,8.9c-13.8,0-26.1-5.1-35.5-13.6c-0.7-0.7-0.1-1.6,0.8-1.1
	c10.1,5.9,22.6,9.4,35.5,9.4c8.7,0,18.3-1.8,27.1-5.5C91.1,60.1,92.2,61.5,90.9,62.5"/>
<path class="st0" d="M94.1,58.7c-1-1.3-6.6-0.6-9.2-0.3c-0.8,0.1-0.9-0.6-0.2-1.1c4.5-3.2,11.9-2.2,12.7-1.2c0.9,1.1-0.2,8.5-4.4,12
	c-0.6,0.5-1.3,0.3-1-0.5C93,65.3,95.1,60,94.1,58.7"/>
</svg>
