<?xml version="1.0" encoding="utf-8"?>
<!-- Generator: Adobe Illustrator 20.0.0, SVG Export Plug-In . SVG Version: 6.00 Build 0)  -->
<svg version="1.1" id="Layer_1" xmlns="http://www.w3.org/2000/svg" xmlns:xlink="http://www.w3.org/1999/xlink" x="0px" y="0px"
	 viewBox="0 0 289.5 102.7" style="enable-background:new 0 0 289.5 102.7;" xml:space="preserve">
<style type="text/css">
	.st0{fill:#FF8300;}
	.st1{fill-rule:evenodd;clip-rule:evenodd;fill:#231F20;}
</style>
<path class="st0" d="M158.5,61c-0.5-0.2-1.2-0.4-2.2-0.4c-1.3,0-3.6,1.2-5,2.7v16.9h-3.5V57.5h2.9l0.5,2.6c3.1-2.8,4.8-3.2,6.5-3.2
	c1,0,1.9,0.4,2.3,0.7L158.5,61z"/>
<path class="st0" d="M158.5,61c-0.5-0.2-1.2-0.4-2.2-0.4c-1.3,0-3.6,1.2-5,2.7v16.9h-3.5V57.5h2.9l0.5,2.6c3.1-2.8,4.8-3.2,6.5-3.2
	c1,0,1.9,0.4,2.3,0.7L158.5,61z"/>
<path class="st0" d="M177,77.9c-1.8,1.8-4.3,2.8-7.2,2.8c-2.8,0-5.3-1-7.1-2.8c-2.1-2.1-3.2-5.3-3.2-9.1c0-3.7,1.2-6.9,3.2-9
	c1.8-1.9,4.3-2.9,7.1-2.9c2.9,0,5.4,1.1,7.2,2.9c2,2.1,3.2,5.2,3.2,9C180.2,72.6,179,75.7,177,77.9 M169.8,59.9
	c-4.3,0-6.7,3.5-6.7,8.8c0,5.4,2.5,8.9,6.8,8.9c4.2,0,6.8-3.6,6.8-8.9C176.6,63.4,174.2,59.9,169.8,59.9"/>
<path class="st0" d="M177,77.9c-1.8,1.8-4.3,2.8-7.2,2.8c-2.8,0-5.3-1-7.1-2.8c-2.1-2.1-3.2-5.3-3.2-9.1c0-3.7,1.2-6.9,3.2-9
	c1.8-1.9,4.3-2.9,7.1-2.9c2.9,0,5.4,1.1,7.2,2.9c2,2.1,3.2,5.2,3.2,9C180.2,72.6,179,75.7,177,77.9z M169.8,59.9
	c-4.3,0-6.7,3.5-6.7,8.8c0,5.4,2.5,8.9,6.8,8.9c4.2,0,6.8-3.6,6.8-8.9C176.6,63.4,174.2,59.9,169.8,59.9z"/>
<path class="st0" d="M189.6,80.7c-3.2,0-5.3-0.8-6.3-1.4v-33h3.5V58c1.6-0.6,3.2-1.1,5.1-1.1c5.2,0,10,3.6,10,11.1
	C201.9,76,196.3,80.7,189.6,80.7 M191.5,60.2c-2.4,0-3.6,0.7-4.7,1.2V77c1,0.4,2.1,0.6,3.6,0.6c4.5,0,8-4.2,8-9.5
	C198.4,63.5,196,60.2,191.5,60.2"/>
<path class="st0" d="M189.6,80.7c-3.2,0-5.3-0.8-6.3-1.4v-33h3.5V58c1.6-0.6,3.2-1.1,5.1-1.1c5.2,0,10,3.6,10,11.1
	C201.9,76,196.3,80.7,189.6,80.7z M191.5,60.2c-2.4,0-3.6,0.7-4.7,1.2V77c1,0.4,2.1,0.6,3.6,0.6c4.5,0,8-4.2,8-9.5
	C198.4,63.5,196,60.2,191.5,60.2z"/>
<path class="st0" d="M221.8,77.9c-1.8,1.8-4.3,2.8-7.2,2.8c-2.8,0-5.3-1-7.1-2.8c-2.1-2.1-3.2-5.3-3.2-9.1c0-3.7,1.2-6.9,3.2-9
	c1.8-1.9,4.3-2.9,7.1-2.9c2.9,0,5.4,1.1,7.2,2.9c2,2.1,3.2,5.2,3.2,9C225,72.6,223.8,75.7,221.8,77.9 M214.6,59.9
	c-4.3,0-6.7,3.5-6.7,8.8c0,5.4,2.5,8.9,6.8,8.9s6.8-3.6,6.8-8.9C221.4,63.4,219,59.9,214.6,59.9"/>
<path class="st0" d="M221.8,77.9c-1.8,1.8-4.3,2.8-7.2,2.8c-2.8,0-5.3-1-7.1-2.8c-2.1-2.1-3.2-5.3-3.2-9.1c0-3.7,1.2-6.9,3.2-9
	c1.8-1.9,4.3-2.9,7.1-2.9c2.9,0,5.4,1.1,7.2,2.9c2,2.1,3.2,5.2,3.2,9C225,72.6,223.8,75.7,221.8,77.9z M214.6,59.9
	c-4.3,0-6.7,3.5-6.7,8.8c0,5.4,2.5,8.9,6.8,8.9s6.8-3.6,6.8-8.9C221.4,63.4,219,59.9,214.6,59.9z"/>
<path class="st0" d="M234.7,80.7c-3.3,0-4.8-1.9-4.8-4.8V60.5h-3.7v-3h3.7v-5l3.5-1.2v6.2h7l-1.2,3h-5.7v14.3c0,1.9,0.7,2.8,2.2,2.8
	c1.6,0,3.1-0.9,4-1.6l1.1,2.5C239,79.7,236.8,80.7,234.7,80.7"/>
<path class="st0" d="M234.7,80.7c-3.3,0-4.8-1.9-4.8-4.8V60.5h-3.7v-3h3.7v-5l3.5-1.2v6.2h7l-1.2,3h-5.7v14.3c0,1.9,0.7,2.8,2.2,2.8
	c1.6,0,3.1-0.9,4-1.6l1.1,2.5C239,79.7,236.8,80.7,234.7,80.7z"/>
<path class="st0" d="M262.3,80.7c-7,0-10.6-5.4-10.6-11.6c0-6.3,3.6-12.2,11.2-12.2c2.1,0,4.2,0.6,5.8,1.4v3.3
	c-1.4-0.9-3.4-1.7-5.9-1.7c-4.8,0-7.5,3.8-7.5,8.9c0,5,2.8,8.7,7.4,8.7c2.5,0,4.3-0.8,5.7-1.7l1.1,2.5
	C267.8,79.6,265.2,80.7,262.3,80.7"/>
<path class="st0" d="M262.3,80.7c-7,0-10.6-5.4-10.6-11.6c0-6.3,3.6-12.2,11.2-12.2c2.1,0,4.2,0.6,5.8,1.4v3.3
	c-1.4-0.9-3.4-1.7-5.9-1.7c-4.8,0-7.5,3.8-7.5,8.9c0,5,2.8,8.7,7.4,8.7c2.5,0,4.3-0.8,5.7-1.7l1.1,2.5
	C267.8,79.6,265.2,80.7,262.3,80.7z"/>
<path class="st0" d="M277.4,80.7c-3.3,0-5.2-0.9-6.7-1.7l1.3-2.7c1.1,0.7,3,1.6,5.5,1.6c2.8,0,4.8-1.2,4.8-3.4
	c0-5.6-10.3-3.6-10.3-11.6c0-3.3,2.4-6,7.5-6c2.4,0,4.2,0.5,5.7,1.2v3.1c-1.6-0.7-3.2-1.3-5.6-1.3c-2.3,0-4.2,0.8-4.2,2.9
	c0,5.1,10.5,3.8,10.5,11.2C286,78.7,282.1,80.7,277.4,80.7"/>
<path class="st0" d="M277.4,80.7c-3.3,0-5.2-0.9-6.7-1.7l1.3-2.7c1.1,0.7,3,1.6,5.5,1.6c2.8,0,4.8-1.2,4.8-3.4
	c0-5.6-10.3-3.6-10.3-11.6c0-3.3,2.4-6,7.5-6c2.4,0,4.2,0.5,5.7,1.2v3.1c-1.6-0.7-3.2-1.3-5.6-1.3c-2.3,0-4.2,0.8-4.2,2.9
	c0,5.1,10.5,3.8,10.5,11.2C286,78.7,282.1,80.7,277.4,80.7z"/>
<path class="st1" d="M83.9,61v-3.1c0-0.5,0.4-0.8,0.8-0.8l13.8,0c0.4,0,0.8,0.3,0.8,0.8v2.6c0,0.4-0.4,1-1,1.9l-7.2,10.2
	c2.7-0.1,5.5,0.3,7.9,1.7c0.5,0.3,0.7,0.8,0.7,1.2v3.3c0,0.5-0.5,1-1,0.7c-4.3-2.2-9.9-2.5-14.6,0c-0.5,0.3-1-0.3-1-0.7v-3.1
	c0-0.5,0-1.4,0.5-2.1l8.3-11.9l-7.2,0C84.2,61.7,83.9,61.4,83.9,61"/>
<path class="st1" d="M33.5,80.2h-4.2c-0.4,0-0.7-0.3-0.8-0.7l0-21.6c0-0.4,0.4-0.8,0.8-0.8h3.9c0.4,0,0.7,0.3,0.8,0.7v2.8h0.1
	c1-2.7,2.9-4,5.5-4c2.6,0,4.3,1.3,5.5,4c1-2.7,3.3-4,5.8-4c1.8,0,3.7,0.7,4.9,2.4c1.3,1.8,1.1,4.4,1.1,6.8l0,13.6
	c0,0.4-0.4,0.8-0.8,0.8h-4.2c-0.4,0-0.8-0.4-0.8-0.8V68c0-0.9,0.1-3.2-0.1-4c-0.3-1.5-1.3-1.9-2.5-1.9c-1,0-2.1,0.7-2.5,1.8
	c-0.4,1.1-0.4,2.9-0.4,4.1v11.4c0,0.4-0.4,0.8-0.8,0.8h-4.2c-0.4,0-0.8-0.4-0.8-0.8l0-11.4c0-2.4,0.4-5.9-2.6-5.9
	c-3,0-2.9,3.4-2.9,5.9l0,11.4C34.3,79.9,33.9,80.2,33.5,80.2"/>
<path class="st1" d="M111.1,56.7c-6.1,0-9.5,5.2-9.5,11.9c0,6.7,3.3,12,9.5,12c5.9,0,9.6-5.2,9.6-11.8
	C120.8,62.1,117.4,56.7,111.1,56.7z M111.1,76.2c-3.3,0-3.3-5.6-3.3-8.3c0-2.6,0.2-6.9,3.3-6.9c1.3,0,2.3,0.6,2.7,2.1
	c0.5,1.7,0.6,3.9,0.6,5.7C114.6,71.7,114.4,76.2,111.1,76.2z"/>
<path class="st1" d="M128.8,80.2h-4.2c-0.4,0-0.8-0.4-0.8-0.8l0-21.6c0-0.4,0.4-0.7,0.8-0.7h3.9c0.4,0,0.7,0.3,0.7,0.6V61h0.1
	c1.2-2.9,2.8-4.4,5.7-4.4c1.9,0,3.7,0.7,4.9,2.5c1.1,1.7,1.1,4.6,1.1,6.7v13.6c0,0.4-0.4,0.7-0.8,0.7h-4.2c-0.4,0-0.7-0.3-0.7-0.7
	V67.8c0-2.4,0.3-5.8-2.6-5.8c-1,0-2,0.7-2.4,1.7c-0.6,1.3-0.7,2.6-0.7,4.1v11.6C129.7,79.9,129.3,80.2,128.8,80.2"/>
<path class="st1" d="M80.3,76.3c-0.8-1.1-1.6-1.9-1.6-3.9v-6.6c0-2.8,0.2-5.3-1.8-7.2c-1.6-1.5-4.3-2.1-6.3-2.1
	c-4,0-8.5,1.5-9.4,6.4c-0.1,0.5,0.3,0.8,0.6,0.9l4.1,0.4c0.4,0,0.7-0.4,0.7-0.8c0.4-1.7,1.8-2.5,3.4-2.5c0.9,0,1.8,0.3,2.4,1.1
	c0.6,0.9,0.5,2,0.5,3.1v0.5c-2.4,0.3-5.6,0.5-7.9,1.5c-2.6,1.1-4.5,3.5-4.5,6.9c0,4.4,2.8,6.6,6.3,6.6c3,0,4.6-0.7,6.9-3.1
	c0.8,1.1,1,1.6,2.4,2.8c0.3,0.2,0.7,0.2,1-0.1l0,0c0.8-0.7,2.4-2.1,3.2-2.8C80.7,77.1,80.6,76.6,80.3,76.3z M72.1,74.4
	c-0.7,1.2-1.7,1.9-2.9,1.9c-1.6,0-2.6-1.2-2.6-3c0-3.6,3.2-4.2,6.2-4.2v0.9C72.8,71.5,72.9,72.9,72.1,74.4z"/>
<path class="st1" d="M25.2,76.3c-0.8-1.1-1.6-1.9-1.6-3.9v-6.6c0-2.8,0.2-5.3-1.8-7.2c-1.6-1.5-4.3-2.1-6.3-2.1
	c-4,0-8.5,1.5-9.4,6.4c-0.1,0.5,0.3,0.8,0.6,0.9l4.1,0.4c0.4,0,0.7-0.4,0.7-0.8c0.3-1.7,1.8-2.5,3.4-2.5c0.9,0,1.8,0.3,2.4,1.1
	c0.6,0.9,0.5,2,0.5,3.1v0.5c-2.4,0.3-5.6,0.5-7.9,1.5c-2.6,1.1-4.5,3.5-4.5,6.9c0,4.4,2.8,6.6,6.3,6.6c3,0,4.6-0.7,6.9-3.1
	c0.8,1.1,1,1.6,2.4,2.8c0.3,0.2,0.7,0.2,1-0.1l0,0c0.8-0.7,2.4-2.1,3.2-2.8C25.6,77.1,25.5,76.6,25.2,76.3z M17,74.4
	c-0.7,1.2-1.7,1.9-2.9,1.9c-1.6,0-2.6-1.2-2.6-3c0-3.6,3.2-4.2,6.3-4.2v0.9C17.7,71.5,17.8,72.9,17,74.4z"/>
<path class="st1" d="M89.4,88.5c-7.9,5.8-19.3,8.9-29.1,8.9c-13.8,0-26.1-5.1-35.5-13.6c-0.7-0.7-0.1-1.6,0.8-1.1
	c10.1,5.9,22.6,9.4,35.5,9.4c8.7,0,18.3-1.8,27.1-5.5C89.6,86.1,90.7,87.5,89.4,88.5"/>
<path class="st1" d="M92.6,84.7c-1-1.3-6.6-0.6-9.2-0.3c-0.8,0.1-0.9-0.6-0.2-1.1c4.5-3.2,11.9-2.2,12.7-1.2c0.9,1.1-0.2,8.5-4.4,12
	c-0.6,0.5-1.3,0.3-1-0.5C91.5,91.3,93.6,86,92.6,84.7"/>
<path class="st0" d="M245.7,57.7c-0.6,0-1.2-0.1-1.7-0.1v22.7h3.5V57.5C246.9,57.6,246.3,57.7,245.7,57.7z"/>
<g>
	<path class="st0" d="M269.6,27.3c0-4.1-3.3-7.4-7.4-7.4c-0.7,0-1.4,0.1-2.1,0.3c-0.4,0.1-0.8,0.1-1.2,0.1c-3.5,0-6.3-2.8-6.3-6.3
		c0-0.4,0.1-0.9,0.1-1.3c0.2-0.6,0.3-1.3,0.3-2c0-4.1-3.3-7.4-7.4-7.4c0,0,0,0,0,0s0,0,0,0c-4.1,0-7.4,3.3-7.4,7.4
		c0,0.7,0.1,1.4,0.3,2c0.1,0.4,0.1,0.8,0.1,1.3c0,3.5-2.8,6.3-6.3,6.3c-0.4,0-0.8-0.1-1.2-0.1c-0.7-0.2-1.4-0.3-2.1-0.3
		c-4.1,0-7.4,3.3-7.4,7.4c0,0,0,0,0,0s0,0,0,0c0,4.1,3.3,7.4,7.4,7.4c0.7,0,1.4-0.1,2.1-0.3c0.4-0.1,0.8-0.1,1.2-0.1
		c3.5,0,6.3,2.8,6.3,6.3c0,0.4-0.1,0.9-0.1,1.3c-0.2,0.6-0.3,1.3-0.3,2c0,4.1,3.3,7.4,7.4,7.4c0,0,0,0,0,0s0,0,0,0
		c4.1,0,7.4-3.3,7.4-7.4c0-0.7-0.1-1.4-0.3-2c-0.1-0.4-0.1-0.8-0.1-1.3c0-3.5,2.8-6.3,6.3-6.3c0.4,0,0.8,0.1,1.2,0.1
		c0.7,0.2,1.4,0.3,2.1,0.3C266.3,34.7,269.6,31.4,269.6,27.3C269.6,27.3,269.6,27.3,269.6,27.3C269.6,27.3,269.6,27.3,269.6,27.3z
		 M233.4,30.2c-1.6,2.4-4.8,3.1-7.1,1.5c-2.4-1.6-3.1-4.8-1.5-7.1c1.6-2.4,4.8-3.1,7.1-1.5C234.3,24.6,235,27.8,233.4,30.2z
		 M254.8,27.3C254.8,27.3,254.8,27.3,254.8,27.3c0,0.7,0.1,1.3,0.3,1.9c0.1,0.5,0.2,0.9,0.2,1.4c0,3.5-2.8,6.3-6.3,6.3
		c-0.5,0-1-0.1-1.4-0.2c0,0,0,0-0.1,0c-0.2-0.1-0.5-0.1-0.8-0.1c-0.1,0-0.1,0-0.2,0c-0.3,0-0.6-0.1-0.9-0.1c0,0,0,0,0,0s0,0,0,0
		c-0.3,0-0.6,0-0.9,0.1c-0.1,0-0.1,0-0.1,0c-0.3,0-0.5,0.1-0.8,0.2c0,0,0,0-0.1,0c-0.5,0.1-0.9,0.2-1.4,0.2c-3.5,0-6.3-2.8-6.3-6.3
		c0-0.5,0.1-1,0.2-1.4c0.2-0.6,0.3-1.2,0.3-1.9c0,0,0,0,0,0s0,0,0,0c0-0.7-0.1-1.3-0.3-1.9c-0.1-0.5-0.2-0.9-0.2-1.4
		c0-3.5,2.8-6.3,6.3-6.3c0.5,0,1,0.1,1.4,0.2c0,0,0,0,0.1,0c0.3,0.1,0.5,0.1,0.8,0.2c0,0,0.1,0,0.1,0c0.3,0,0.6,0.1,0.9,0.1
		c0,0,0,0,0,0s0,0,0,0c0.3,0,0.6,0,0.9-0.1c0.1,0,0.1,0,0.2,0c0.3,0,0.5-0.1,0.8-0.2c0,0,0,0,0.1,0c0.5-0.1,0.9-0.2,1.4-0.2
		c3.5,0,6.3,2.8,6.3,6.3c0,0.5-0.1,1-0.2,1.4C254.9,26,254.8,26.6,254.8,27.3C254.8,27.3,254.8,27.3,254.8,27.3z M266.6,30.2
		c-1.6,2.4-4.8,3.1-7.1,1.5c-2.4-1.6-3.1-4.8-1.5-7.1c1.6-2.4,4.8-3.1,7.1-1.5C267.5,24.6,268.1,27.8,266.6,30.2z"/>
	<ellipse transform="matrix(0.5456 -0.8381 0.8381 0.5456 81.1822 204.4384)" class="st0" cx="229.1" cy="27.4" rx="3.2" ry="3.2"/>
	<ellipse transform="matrix(0.5454 -0.8382 0.8382 0.5454 96.2907 232.2503)" class="st0" cx="262.2" cy="27.4" rx="3.2" ry="3.2"/>
</g>
</svg>
