<svg id="Layer_1" data-name="Layer 1" xmlns="http://www.w3.org/2000/svg" viewBox="0 0 459.48 47.4"><defs><style>.cls-1,.cls-2{fill:#fff;}.cls-2{fill-rule:evenodd;}</style></defs><title>roboscout-logos-full</title><path class="cls-1" d="M78,.57h12.6a28.53,28.53,0,0,1,5.67.49,17.15,17.15,0,0,1,4.2,1.4,11,11,0,0,1,5.29,4.73,13.78,13.78,0,0,1,1.58,6.54,11.48,11.48,0,0,1-2.52,7.63,13.64,13.64,0,0,1-6.51,4.27v.14q2,1.12,5.74,7.49l7.7,13.44h-9.66L95.4,35a26.81,26.81,0,0,0-3-4.62,4.93,4.93,0,0,0-2.11-1.68h-4v18H78ZM90.12,21.85A11.57,11.57,0,0,0,93,21.54a10.3,10.3,0,0,0,2.29-.87,6.22,6.22,0,0,0,2.36-2.38,7.36,7.36,0,0,0,.88-3.71,7.37,7.37,0,0,0-.77-3.36A5.85,5.85,0,0,0,95.4,8.77a8.2,8.2,0,0,0-2.08-.95,10.73,10.73,0,0,0-3.13-.38H86.31V21.85Z"/><path class="cls-1" d="M137.69,47.4a25,25,0,0,1-9.38-1.71,21.17,21.17,0,0,1-12.15-12.21,26.07,26.07,0,0,1-1.71-9.66,25.87,25.87,0,0,1,1.71-9.59A22.27,22.27,0,0,1,121,6.73a21.21,21.21,0,0,1,7.35-4.87A25,25,0,0,1,137.69.15a24.52,24.52,0,0,1,9.38,1.75,21.48,21.48,0,0,1,12.15,12.32,25.89,25.89,0,0,1,1.72,9.59,25.63,25.63,0,0,1-1.75,9.66,22,22,0,0,1-4.83,7.42A21.7,21.7,0,0,1,147,45.69,24.77,24.77,0,0,1,137.69,47.4Zm0-7.07a14.56,14.56,0,0,0,5.77-1.12A12.68,12.68,0,0,0,148,36a14.72,14.72,0,0,0,2.94-5.18,21.63,21.63,0,0,0,1.05-7,22.1,22.1,0,0,0-1-6.93,15,15,0,0,0-2.87-5.22,12.57,12.57,0,0,0-4.48-3.29,14.55,14.55,0,0,0-5.92-1.15,14.76,14.76,0,0,0-5.84,1.12,12.53,12.53,0,0,0-4.52,3.25,14.68,14.68,0,0,0-2.9,5.21,22.31,22.31,0,0,0-1,7,22.3,22.3,0,0,0,1,7,14.3,14.3,0,0,0,2.9,5.18,12.68,12.68,0,0,0,4.52,3.22A14.74,14.74,0,0,0,137.69,40.33Z"/><path class="cls-1" d="M167.37.57h13.51a18.77,18.77,0,0,1,6.41,1,13.48,13.48,0,0,1,4.48,2.59,9.87,9.87,0,0,1,2.63,3.75,11.85,11.85,0,0,1,.84,4.38,11.18,11.18,0,0,1-1.44,5.56,9.75,9.75,0,0,1-4.17,4v.14a10.92,10.92,0,0,1,6.37,4,11.43,11.43,0,0,1,2.31,7.11,13.49,13.49,0,0,1-1,5.14,12.25,12.25,0,0,1-3,4.38,14.86,14.86,0,0,1-5.08,3,20.31,20.31,0,0,1-7,1.12H167.37Zm12.32,19.25A7.36,7.36,0,0,0,185,18.07a5.92,5.92,0,0,0,1.79-4.41,6.08,6.08,0,0,0-1.71-4.38q-1.72-1.78-5.5-1.79H175.7V19.82Zm1.43,20a11.05,11.05,0,0,0,6.44-1.58q2.21-1.57,2.22-5.14a5.62,5.62,0,0,0-2.08-4.62A8.75,8.75,0,0,0,182,26.75H175.7v13Z"/><path class="cls-1" d="M225.54,47.4a25,25,0,0,1-9.38-1.71A21.17,21.17,0,0,1,204,33.47a26.07,26.07,0,0,1-1.71-9.66A25.87,25.87,0,0,1,204,14.22a22.27,22.27,0,0,1,4.79-7.49,21.21,21.21,0,0,1,7.35-4.87A25,25,0,0,1,225.54.15a24.52,24.52,0,0,1,9.38,1.75,21.48,21.48,0,0,1,12.15,12.32,25.89,25.89,0,0,1,1.72,9.59A25.63,25.63,0,0,1,247,33.47a22,22,0,0,1-4.83,7.42,21.7,21.7,0,0,1-7.35,4.79A24.77,24.77,0,0,1,225.54,47.4Zm0-7.07a14.56,14.56,0,0,0,5.77-1.12A12.68,12.68,0,0,0,235.83,36a14.72,14.72,0,0,0,2.94-5.18,21.63,21.63,0,0,0,1.05-7,22.1,22.1,0,0,0-1-6.93,15,15,0,0,0-2.87-5.22,12.57,12.57,0,0,0-4.48-3.29,14.55,14.55,0,0,0-5.92-1.15,14.76,14.76,0,0,0-5.84,1.12,12.53,12.53,0,0,0-4.52,3.25,14.68,14.68,0,0,0-2.9,5.21,22.31,22.31,0,0,0-1,7,22.3,22.3,0,0,0,1,7,14.3,14.3,0,0,0,2.9,5.18,12.68,12.68,0,0,0,4.52,3.22A14.74,14.74,0,0,0,225.54,40.33Z"/><path class="cls-1" d="M256.27,37a21.24,21.24,0,0,0,4.66,2.38,16.37,16.37,0,0,0,5.77,1,14.09,14.09,0,0,0,2.83-.28,7.53,7.53,0,0,0,2.45-.95,5.36,5.36,0,0,0,1.75-1.71,4.62,4.62,0,0,0,.66-2.52,5.27,5.27,0,0,0-1.47-3.78,15.81,15.81,0,0,0-3.71-2.8Q267,27,264.43,25.77a30.27,30.27,0,0,1-4.8-2.94,14.65,14.65,0,0,1-3.71-4.06,11,11,0,0,1-1.47-5.88,12.22,12.22,0,0,1,1-4.83A11.52,11.52,0,0,1,258.34,4a14.53,14.53,0,0,1,4.73-2.8,18,18,0,0,1,6.37-1,29.07,29.07,0,0,1,6.48.67,20.53,20.53,0,0,1,4.79,1.64v7.7A29.37,29.37,0,0,0,275.21,8a20.44,20.44,0,0,0-5.5-.77,11.28,11.28,0,0,0-2.34.25,5.67,5.67,0,0,0-2,.84,4.44,4.44,0,0,0-1.4,1.54,4.77,4.77,0,0,0-.52,2.34,4.74,4.74,0,0,0,1.47,3.54,16.83,16.83,0,0,0,3.71,2.66q2.24,1.22,4.79,2.48a28.91,28.91,0,0,1,4.79,3,14.6,14.6,0,0,1,3.71,4.2,11.84,11.84,0,0,1,1.47,6.13,12.2,12.2,0,0,1-1.23,5.53,12,12,0,0,1-3.43,4.17,15.85,15.85,0,0,1-5.21,2.63,22.67,22.67,0,0,1-6.58.91,26.48,26.48,0,0,1-7.67-1.08A22.45,22.45,0,0,1,253,43.41Z"/><path class="cls-1" d="M325.71,43.77a27.71,27.71,0,0,1-7.49,2.87,34.48,34.48,0,0,1-7.14.77,27.12,27.12,0,0,1-10-1.71,19.85,19.85,0,0,1-11.79-12.21,27.81,27.81,0,0,1-1.5-9.31,25.56,25.56,0,0,1,1.71-9.42A22.27,22.27,0,0,1,302.09,2a26.2,26.2,0,0,1,10-1.86A34.34,34.34,0,0,1,319,.78a25,25,0,0,1,5.25,1.61v7.84A27.75,27.75,0,0,0,318.64,8a23.79,23.79,0,0,0-6.3-.8,16.08,16.08,0,0,0-6.75,1.33,13.82,13.82,0,0,0-4.87,3.64,16,16,0,0,0-3,5.36,20.1,20.1,0,0,0-1,6.4,20.08,20.08,0,0,0,1,6.65,14.7,14.7,0,0,0,3,5.18,13.63,13.63,0,0,0,4.83,3.36,16.4,16.4,0,0,0,6.41,1.19,19.43,19.43,0,0,0,6.16-.91,28.63,28.63,0,0,0,5.18-2.31Z"/><path class="cls-1" d="M352.1,47.4a25,25,0,0,1-9.38-1.71,21.17,21.17,0,0,1-12.15-12.21,26.07,26.07,0,0,1-1.71-9.66,25.87,25.87,0,0,1,1.71-9.59,22.27,22.27,0,0,1,4.79-7.49,21.21,21.21,0,0,1,7.35-4.87A25,25,0,0,1,352.1.15a24.52,24.52,0,0,1,9.38,1.75,21.48,21.48,0,0,1,12.15,12.32,25.89,25.89,0,0,1,1.72,9.59,25.63,25.63,0,0,1-1.75,9.66,22,22,0,0,1-4.83,7.42,21.7,21.7,0,0,1-7.35,4.79A24.77,24.77,0,0,1,352.1,47.4Zm0-7.07a14.56,14.56,0,0,0,5.77-1.12A12.68,12.68,0,0,0,362.39,36a14.72,14.72,0,0,0,2.94-5.18,21.63,21.63,0,0,0,1.05-7,22.1,22.1,0,0,0-1-6.93,15,15,0,0,0-2.87-5.22A12.57,12.57,0,0,0,358,8.38a14.55,14.55,0,0,0-5.92-1.15,14.76,14.76,0,0,0-5.84,1.12,12.53,12.53,0,0,0-4.52,3.25,14.68,14.68,0,0,0-2.9,5.21,22.31,22.31,0,0,0-1,7,22.3,22.3,0,0,0,1,7,14.3,14.3,0,0,0,2.9,5.18,12.68,12.68,0,0,0,4.52,3.22A14.74,14.74,0,0,0,352.1,40.33Z"/><path class="cls-1" d="M400.51,47.4a24,24,0,0,1-10.83-2.21,13.77,13.77,0,0,1-6.5-6.75,15.37,15.37,0,0,1-1.33-4.06,26.61,26.61,0,0,1-.42-4.9V.57h8.33V28.93A13.8,13.8,0,0,0,391,35.15,8.68,8.68,0,0,0,394.61,39a13.44,13.44,0,0,0,11.8,0A8.69,8.69,0,0,0,410,35.15a14,14,0,0,0,1.26-6.3V.57h8.33V29.48a20.25,20.25,0,0,1-1.75,9,14.17,14.17,0,0,1-6.57,6.68A23.85,23.85,0,0,1,400.51,47.4Z"/><path class="cls-1" d="M436.52,7.64H423.08V.57h36.4l-2.31,7.07H444.85V46.7h-8.33Z"/><path class="cls-1" d="M13.2,9h-.34a8.3,8.3,0,0,0-1.93.31,3.67,3.67,0,0,1-5.41,4.83A8.3,8.3,0,1,0,13.2,9ZM17,18.47a4,4,0,1,1-7.45-2.64,1.75,1.75,0,0,0,2.57-2.3,4,4,0,0,1,.92-.15h.16A4,4,0,0,1,17,18.47ZM13.2,15.75h-.07a1.59,1.59,0,0,0-.37.06.71.71,0,0,1-1,.93,1.59,1.59,0,1,0,1.48-1Zm32.3,0h-.07a1.6,1.6,0,0,0-.37.06.7.7,0,0,1-1,.93,1.59,1.59,0,1,0,1.47-1Zm.34-11.6H34.09a4.77,4.77,0,0,0-9.46,0H12.86a13.2,13.2,0,1,0,12.62,18,3.92,3.92,0,0,1,3.66-2.47h.42a3.92,3.92,0,0,1,3.66,2.46,13.2,13.2,0,1,0,12.62-18ZM23.46,19.72A10.52,10.52,0,1,1,12.86,6.83h.34A10.54,10.54,0,0,1,23.46,19.72Zm5.9-12.91a2.32,2.32,0,1,1,2.32-2.32h0a2.32,2.32,0,0,1-2.32,2.32h0ZM45.51,27.87a10.53,10.53,0,1,1,0-21.05h.34a10.53,10.53,0,0,1-.34,21ZM45.51,9h-.34a8.3,8.3,0,0,0-1.93.31,3.67,3.67,0,0,1-5.41,4.83A8.3,8.3,0,1,0,45.51,9Zm3.79,9.44a4,4,0,1,1-7.45-2.63,1.75,1.75,0,0,0,2.58-2.3,4,4,0,0,1,.92-.15h.16a4,4,0,0,1,3.79,5.08Z"/><path class="cls-2" d="M47.61,41c-5,3.71-12.3,5.68-18.57,5.68A33.61,33.61,0,0,1,6.35,38.05c-.47-.42,0-1,.52-.67a45.65,45.65,0,0,0,22.7,6,45.16,45.16,0,0,0,17.31-3.54c.85-.36,1.56.56.73,1.17"/><path class="cls-2" d="M49.7,38.64c-.64-.82-4.25-.39-5.86-.19-.49.06-.57-.37-.12-.68,2.87-2,7.58-1.43,8.13-.76s-.14,5.4-2.84,7.66c-.41.35-.81.16-.62-.3.6-1.51,2-4.9,1.32-5.73"/></svg>