<?xml version="1.0" encoding="utf-8"?>
<!-- Generator: Adobe Illustrator 20.0.0, SVG Export Plug-In . SVG Version: 6.00 Build 0)  -->
<svg version="1.1" id="Layer_1" xmlns="http://www.w3.org/2000/svg" xmlns:xlink="http://www.w3.org/1999/xlink" x="0px" y="0px"
	 viewBox="0 0 300 71" style="enable-background:new 0 0 300 71;" xml:space="preserve">
<style type="text/css">
	.st0{fill:#FFFFFF;}
	.st1{fill-rule:evenodd;clip-rule:evenodd;fill:#231F20;}
</style>
<path class="st0" d="M158.5,29.5c-0.5-0.2-1.2-0.4-2.2-0.4c-1.3,0-3.6,1.2-5,2.7v16.9h-3.5V26h2.9l0.5,2.6c3.1-2.8,4.8-3.2,6.5-3.2
	c1,0,1.9,0.4,2.3,0.7L158.5,29.5z"/>
<path class="st0" d="M158.5,29.5c-0.5-0.2-1.2-0.4-2.2-0.4c-1.3,0-3.6,1.2-5,2.7v16.9h-3.5V26h2.9l0.5,2.6c3.1-2.8,4.8-3.2,6.5-3.2
	c1,0,1.9,0.4,2.3,0.7L158.5,29.5z"/>
<path class="st0" d="M177,46.4c-1.8,1.8-4.3,2.8-7.2,2.8c-2.8,0-5.3-1-7.1-2.8c-2.1-2.1-3.2-5.3-3.2-9.1c0-3.7,1.2-6.9,3.2-9
	c1.8-1.9,4.3-2.9,7.1-2.9c2.9,0,5.4,1.1,7.2,2.9c2,2.1,3.2,5.2,3.2,9C180.2,41.1,179,44.2,177,46.4 M169.8,28.4
	c-4.3,0-6.7,3.5-6.7,8.8c0,5.4,2.5,8.9,6.8,8.9c4.2,0,6.8-3.6,6.8-8.9C176.6,31.9,174.2,28.4,169.8,28.4"/>
<path class="st0" d="M177,46.4c-1.8,1.8-4.3,2.8-7.2,2.8c-2.8,0-5.3-1-7.1-2.8c-2.1-2.1-3.2-5.3-3.2-9.1c0-3.7,1.2-6.9,3.2-9
	c1.8-1.9,4.3-2.9,7.1-2.9c2.9,0,5.4,1.1,7.2,2.9c2,2.1,3.2,5.2,3.2,9C180.2,41.1,179,44.2,177,46.4z M169.8,28.4
	c-4.3,0-6.7,3.5-6.7,8.8c0,5.4,2.5,8.9,6.8,8.9c4.2,0,6.8-3.6,6.8-8.9C176.6,31.9,174.2,28.4,169.8,28.4z"/>
<path class="st0" d="M189.6,49.2c-3.2,0-5.3-0.8-6.3-1.4v-33h3.5v11.8c1.6-0.6,3.2-1.1,5.1-1.1c5.2,0,10,3.6,10,11.1
	C201.9,44.5,196.3,49.2,189.6,49.2 M191.5,28.7c-2.4,0-3.6,0.7-4.7,1.2v15.7c1,0.4,2.1,0.6,3.6,0.6c4.5,0,8-4.2,8-9.5
	C198.4,32,196,28.7,191.5,28.7"/>
<path class="st0" d="M189.6,49.2c-3.2,0-5.3-0.8-6.3-1.4v-33h3.5v11.8c1.6-0.6,3.2-1.1,5.1-1.1c5.2,0,10,3.6,10,11.1
	C201.9,44.5,196.3,49.2,189.6,49.2z M191.5,28.7c-2.4,0-3.6,0.7-4.7,1.2v15.7c1,0.4,2.1,0.6,3.6,0.6c4.5,0,8-4.2,8-9.5
	C198.4,32,196,28.7,191.5,28.7z"/>
<path class="st0" d="M221.8,46.4c-1.8,1.8-4.3,2.8-7.2,2.8c-2.8,0-5.3-1-7.1-2.8c-2.1-2.1-3.2-5.3-3.2-9.1c0-3.7,1.2-6.9,3.2-9
	c1.8-1.9,4.3-2.9,7.1-2.9c2.9,0,5.4,1.1,7.2,2.9c2,2.1,3.2,5.2,3.2,9C225,41.1,223.8,44.2,221.8,46.4 M214.6,28.4
	c-4.3,0-6.7,3.5-6.7,8.8c0,5.4,2.5,8.9,6.8,8.9s6.8-3.6,6.8-8.9C221.4,31.9,219,28.4,214.6,28.4"/>
<path class="st0" d="M221.8,46.4c-1.8,1.8-4.3,2.8-7.2,2.8c-2.8,0-5.3-1-7.1-2.8c-2.1-2.1-3.2-5.3-3.2-9.1c0-3.7,1.2-6.9,3.2-9
	c1.8-1.9,4.3-2.9,7.1-2.9c2.9,0,5.4,1.1,7.2,2.9c2,2.1,3.2,5.2,3.2,9C225,41.1,223.8,44.2,221.8,46.4z M214.6,28.4
	c-4.3,0-6.7,3.5-6.7,8.8c0,5.4,2.5,8.9,6.8,8.9s6.8-3.6,6.8-8.9C221.4,31.9,219,28.4,214.6,28.4z"/>
<path class="st0" d="M234.7,49.2c-3.3,0-4.8-1.9-4.8-4.8V29h-3.7v-3h3.7v-5l3.5-1.2V26h7l-1.2,3h-5.7v14.3c0,1.9,0.7,2.8,2.2,2.8
	c1.6,0,3.1-0.9,4-1.6l1.1,2.5C239,48.2,236.8,49.2,234.7,49.2"/>
<path class="st0" d="M234.7,49.2c-3.3,0-4.8-1.9-4.8-4.8V29h-3.7v-3h3.7v-5l3.5-1.2V26h7l-1.2,3h-5.7v14.3c0,1.9,0.7,2.8,2.2,2.8
	c1.6,0,3.1-0.9,4-1.6l1.1,2.5C239,48.2,236.8,49.2,234.7,49.2z"/>
<path class="st0" d="M262.3,49.2c-7,0-10.6-5.4-10.6-11.6c0-6.3,3.6-12.2,11.2-12.2c2.1,0,4.2,0.6,5.8,1.4v3.3
	c-1.4-0.9-3.4-1.7-5.9-1.7c-4.8,0-7.5,3.8-7.5,8.9c0,5,2.8,8.7,7.4,8.7c2.5,0,4.3-0.8,5.7-1.7l1.1,2.5
	C267.8,48.1,265.2,49.2,262.3,49.2"/>
<path class="st0" d="M262.3,49.2c-7,0-10.6-5.4-10.6-11.6c0-6.3,3.6-12.2,11.2-12.2c2.1,0,4.2,0.6,5.8,1.4v3.3
	c-1.4-0.9-3.4-1.7-5.9-1.7c-4.8,0-7.5,3.8-7.5,8.9c0,5,2.8,8.7,7.4,8.7c2.5,0,4.3-0.8,5.7-1.7l1.1,2.5
	C267.8,48.1,265.2,49.2,262.3,49.2z"/>
<path class="st0" d="M277.4,49.2c-3.3,0-5.2-0.9-6.7-1.7l1.3-2.7c1.1,0.7,3,1.6,5.5,1.6c2.8,0,4.8-1.2,4.8-3.4
	c0-5.6-10.3-3.6-10.3-11.6c0-3.3,2.4-6,7.5-6c2.4,0,4.2,0.5,5.7,1.2v3.1c-1.6-0.7-3.2-1.3-5.6-1.3c-2.3,0-4.2,0.8-4.2,2.9
	c0,5.1,10.5,3.8,10.5,11.2C286,47.2,282.1,49.2,277.4,49.2"/>
<path class="st0" d="M277.4,49.2c-3.3,0-5.2-0.9-6.7-1.7l1.3-2.7c1.1,0.7,3,1.6,5.5,1.6c2.8,0,4.8-1.2,4.8-3.4
	c0-5.6-10.3-3.6-10.3-11.6c0-3.3,2.4-6,7.5-6c2.4,0,4.2,0.5,5.7,1.2v3.1c-1.6-0.7-3.2-1.3-5.6-1.3c-2.3,0-4.2,0.8-4.2,2.9
	c0,5.1,10.5,3.8,10.5,11.2C286,47.2,282.1,49.2,277.4,49.2z"/>
<path class="st0" d="M293.5,8.5c-2.3-2.3-6-2.3-8.3,0c-0.4,0.4-0.7,0.8-0.9,1.2l0,0c-0.2,0.3-0.4,0.6-0.7,0.9c-1.9,1.9-5.1,1.9-7,0
	c-0.3-0.3-0.5-0.6-0.7-0.9c0-0.1-0.1-0.1-0.1-0.2c-0.4-0.8-0.8-1.5-1.5-2.1c-2.9-2.9-7.6-2.9-10.5,0c-0.5,0.5-0.8,1-1.1,1.5v0
	c-0.3,0.4-0.6,0.8-0.9,1.1c-2.4,2.4-6.4,2.4-8.9,0c-0.3-0.3-0.6-0.7-0.9-1.1c-0.3-0.5-0.7-1-1.2-1.5c-2.9-2.9-7.6-2.9-10.5,0
	c-2.9,2.9-2.9,7.6,0,10.5c2.9,2.9,7.6,2.9,10.5,0c0.5-0.5,0.8-1,1.2-1.5c0,0,0-0.1,0.1-0.1c0.2-0.4,0.5-0.7,0.8-1
	c2.4-2.4,6.4-2.4,8.9,0c0.4,0.4,0.7,0.8,0.9,1.2v0c0.3,0.5,0.7,1,1.1,1.4c2.9,2.9,7.6,2.9,10.5,0c0.5-0.5,0.9-1,1.2-1.6
	c0.2-0.2,0.3-0.4,0.4-0.6c0,0,0-0.1,0.1-0.1c0.2-0.3,0.4-0.6,0.6-0.8c1.9-1.9,5.1-1.9,7,0c0.3,0.3,0.5,0.6,0.7,1l0,0
	c0.2,0.4,0.5,0.8,0.9,1.1c2.3,2.3,6,2.3,8.3,0C295.8,14.5,295.8,10.8,293.5,8.5z M270.2,17.7c-2.8,0.6-5.5-1.2-6.1-4
	c-0.6-2.8,1.2-5.5,4-6.1c2.8-0.6,5.5,1.2,6.1,4C274.8,14.3,273,17.1,270.2,17.7z M290,15.3c-1.5,0.3-2.9-0.6-3.2-2.1
	c-0.3-1.5,0.6-2.9,2.1-3.2c1.5-0.3,2.9,0.6,3.2,2.1C292.4,13.6,291.4,15,290,15.3z M272.4,11.9c0.4,1.8-0.8,3.5-2.5,3.9
	c-1.8,0.4-3.5-0.8-3.8-2.5c-0.4-1.8,0.7-3.5,2.5-3.8C270.3,9.1,272,10.2,272.4,11.9z"/>
<path class="st0" d="M245.7,26.2c-0.6,0-1.2-0.1-1.7-0.1v22.7h3.5V26C246.9,26.1,246.3,26.2,245.7,26.2z"/>
<path class="st1" d="M83.9,29.5v-3.1c0-0.5,0.4-0.8,0.8-0.8l13.8,0c0.4,0,0.8,0.3,0.8,0.8V29c0,0.4-0.4,1-1,1.9l-7.2,10.2
	c2.7-0.1,5.5,0.3,7.9,1.7c0.5,0.3,0.7,0.8,0.7,1.2v3.3c0,0.5-0.5,1-1,0.7c-4.3-2.2-9.9-2.5-14.6,0c-0.5,0.3-1-0.3-1-0.7v-3.1
	c0-0.5,0-1.4,0.5-2.1l8.3-11.9l-7.2,0C84.2,30.2,83.9,29.9,83.9,29.5"/>
<path class="st1" d="M33.5,48.7h-4.2c-0.4,0-0.7-0.3-0.8-0.7l0-21.6c0-0.4,0.4-0.8,0.8-0.8h3.9c0.4,0,0.7,0.3,0.8,0.7v2.8h0.1
	c1-2.7,2.9-4,5.5-4c2.6,0,4.3,1.3,5.5,4c1-2.7,3.3-4,5.8-4c1.8,0,3.7,0.7,4.9,2.4c1.3,1.8,1.1,4.4,1.1,6.8l0,13.6
	c0,0.4-0.4,0.8-0.8,0.8h-4.2c-0.4,0-0.8-0.4-0.8-0.8V36.5c0-0.9,0.1-3.2-0.1-4c-0.3-1.5-1.3-1.9-2.5-1.9c-1,0-2.1,0.7-2.5,1.8
	c-0.4,1.1-0.4,2.9-0.4,4.1v11.4c0,0.4-0.4,0.8-0.8,0.8h-4.2c-0.4,0-0.8-0.4-0.8-0.8l0-11.4c0-2.4,0.4-5.9-2.6-5.9
	c-3,0-2.9,3.4-2.9,5.9l0,11.4C34.3,48.4,33.9,48.7,33.5,48.7"/>
<path class="st1" d="M111.1,25.2c-6.1,0-9.5,5.2-9.5,11.9c0,6.7,3.3,12,9.5,12c5.9,0,9.6-5.2,9.6-11.8
	C120.8,30.6,117.4,25.2,111.1,25.2z M111.1,44.7c-3.3,0-3.3-5.6-3.3-8.3c0-2.6,0.2-6.9,3.3-6.9c1.3,0,2.3,0.6,2.7,2.1
	c0.5,1.7,0.6,3.9,0.6,5.7C114.6,40.2,114.4,44.7,111.1,44.7z"/>
<path class="st1" d="M128.8,48.7h-4.2c-0.4,0-0.8-0.4-0.8-0.8l0-21.6c0-0.4,0.4-0.7,0.8-0.7h3.9c0.4,0,0.7,0.3,0.7,0.6v3.3h0.1
	c1.2-2.9,2.8-4.4,5.7-4.4c1.9,0,3.7,0.7,4.9,2.5c1.1,1.7,1.1,4.6,1.1,6.7V48c0,0.4-0.4,0.7-0.8,0.7h-4.2c-0.4,0-0.7-0.3-0.7-0.7
	V36.3c0-2.4,0.3-5.8-2.6-5.8c-1,0-2,0.7-2.4,1.7c-0.6,1.3-0.7,2.6-0.7,4.1v11.6C129.7,48.4,129.3,48.7,128.8,48.7"/>
<path class="st1" d="M80.3,44.8c-0.8-1.1-1.6-1.9-1.6-3.9v-6.6c0-2.8,0.2-5.3-1.8-7.2c-1.6-1.5-4.3-2.1-6.3-2.1
	c-4,0-8.5,1.5-9.4,6.4c-0.1,0.5,0.3,0.8,0.6,0.9l4.1,0.4c0.4,0,0.7-0.4,0.7-0.8c0.4-1.7,1.8-2.5,3.4-2.5c0.9,0,1.8,0.3,2.4,1.1
	c0.6,0.9,0.5,2,0.5,3.1v0.5c-2.4,0.3-5.6,0.5-7.9,1.5c-2.6,1.1-4.5,3.5-4.5,6.9c0,4.4,2.8,6.6,6.3,6.6c3,0,4.6-0.7,6.9-3.1
	c0.8,1.1,1,1.6,2.4,2.8c0.3,0.2,0.7,0.2,1-0.1l0,0c0.8-0.7,2.4-2.1,3.2-2.8C80.7,45.6,80.6,45.1,80.3,44.8z M72.1,42.9
	c-0.7,1.2-1.7,1.9-2.9,1.9c-1.6,0-2.6-1.2-2.6-3c0-3.6,3.2-4.2,6.2-4.2v0.9C72.8,40,72.9,41.4,72.1,42.9z"/>
<path class="st1" d="M25.2,44.8c-0.8-1.1-1.6-1.9-1.6-3.9v-6.6c0-2.8,0.2-5.3-1.8-7.2c-1.6-1.5-4.3-2.1-6.3-2.1
	c-4,0-8.5,1.5-9.4,6.4c-0.1,0.5,0.3,0.8,0.6,0.9l4.1,0.4c0.4,0,0.7-0.4,0.7-0.8c0.3-1.7,1.8-2.5,3.4-2.5c0.9,0,1.8,0.3,2.4,1.1
	c0.6,0.9,0.5,2,0.5,3.1v0.5c-2.4,0.3-5.6,0.5-7.9,1.5c-2.6,1.1-4.5,3.5-4.5,6.9c0,4.4,2.8,6.6,6.3,6.6c3,0,4.6-0.7,6.9-3.1
	c0.8,1.1,1,1.6,2.4,2.8c0.3,0.2,0.7,0.2,1-0.1l0,0c0.8-0.7,2.4-2.1,3.2-2.8C25.6,45.6,25.5,45.1,25.2,44.8z M17,42.9
	c-0.7,1.2-1.7,1.9-2.9,1.9c-1.6,0-2.6-1.2-2.6-3c0-3.6,3.2-4.2,6.3-4.2v0.9C17.7,40,17.8,41.4,17,42.9z"/>
<path class="st1" d="M89.4,57c-7.9,5.8-19.3,8.9-29.1,8.9c-13.8,0-26.1-5.1-35.5-13.6c-0.7-0.7-0.1-1.6,0.8-1.1
	c10.1,5.9,22.6,9.4,35.5,9.4c8.7,0,18.3-1.8,27.1-5.5C89.6,54.6,90.7,56,89.4,57"/>
<path class="st1" d="M92.6,53.2c-1-1.3-6.6-0.6-9.2-0.3c-0.8,0.1-0.9-0.6-0.2-1.1c4.5-3.2,11.9-2.2,12.7-1.2c0.9,1.1-0.2,8.5-4.4,12
	c-0.6,0.5-1.3,0.3-1-0.5C91.5,59.8,93.6,54.5,92.6,53.2"/>
</svg>
